<svg width="52" height="52" viewBox="0 0 52 52" fill="none" xmlns="http://www.w3.org/2000/svg">
<g clip-path="url(#clip0_769_184)">
<path d="M47.9309 34.4107C48.6578 34.2433 49.3441 33.9325 49.9494 33.4965C50.4801 33.1099 50.8065 32.5631 51.1874 31.5346C51.6917 30.1731 51.8367 28.5372 51.5346 26.7942C51.4732 26.44 51.3956 26.0205 51.2925 25.5251C51.1253 24.7243 50.8993 23.7381 50.5725 22.9875C50.0901 21.878 49.4618 20.9902 48.7013 20.0495C47.204 18.1982 46.2633 17.364 44.3967 16.145C41.3873 14.5637 39.4626 14.0762 36.0733 13.5165C32.6839 12.9569 25.9362 13.388 22.6455 14.3737C18.9632 15.4766 16.0182 17.5163 12.5327 20.7161C12.1474 21.065 11.6726 21.2999 11.1616 21.3946C8.55813 21.896 7.48654 22.0067 5.30159 22.5103C4.13345 22.7796 2.95927 23.2133 2.07642 24.0244C0.513202 25.4604 0.353653 27.8204 0.326269 29.9533C0.311789 30.6874 0.406593 31.4197 0.607568 32.126C1.05754 33.664 1.77751 34.5398 3.69029 34.6722L13.4279 34.7483C19.9496 34.7483 32.2841 34.6342 38.8361 34.7098L47.9309 34.4107Z" fill="white"/>
<path d="M38.8368 32.6567C37.7905 32.6567 36.2458 32.6584 36.2458 32.6584C35.3887 32.6584 19.1038 32.7156 16.0885 32.6996H13.6881C13.843 33.1704 13.9217 33.663 13.9212 34.1586C13.9212 34.3607 13.9116 34.5572 13.8942 34.7481L38.6143 34.7111C38.5988 34.5311 38.5902 34.3476 38.5902 34.1582C38.5896 33.6487 38.6729 33.1426 38.8368 32.6602V32.6567Z" fill="white"/>
<path d="M21.1733 22.1326C18.6548 22.1874 16.2427 22.2193 14.7566 22.1986C14.7125 22.1981 14.6695 22.1847 14.6327 22.1602C14.596 22.1357 14.5672 22.1011 14.5498 22.0605C14.5323 22.02 14.5271 21.9752 14.5346 21.9317C14.5421 21.8882 14.5621 21.8478 14.5921 21.8155C15.587 20.7585 16.4537 19.6656 17.9605 18.6591C19.7989 17.4319 22.2175 16.3592 24.6888 15.7593C26.2711 15.3217 27.9103 15.1243 29.5513 15.1737C29.3929 16.24 28.7722 19.4558 28.4488 21.9209C26.5216 21.9942 23.79 22.0758 21.1733 22.1326Z" fill="#87CCE3"/>
<path d="M0.666914 26.5554C0.912858 25.5864 1.33841 24.7024 2.0765 24.0243C2.58592 23.5707 3.17307 23.2128 3.80967 22.9679C4.3256 23.0466 4.93924 23.1472 5.4661 23.2608C5.60549 23.2793 5.74196 23.3154 5.87224 23.3684C5.99784 23.4316 6.16884 23.566 6.0908 23.8016C5.84574 24.5753 5.502 25.3142 5.06807 26.0001C4.88038 26.3203 4.57562 26.555 4.21812 26.6547C2.94675 26.9933 1.56661 26.9447 0.574219 26.9674C0.601646 26.8286 0.632544 26.6912 0.666914 26.5554Z" fill="white"/>
<path d="M29.9315 21.861C30.0601 20.8437 30.2506 19.6056 30.4379 18.3789C30.6128 17.2346 30.7851 16.0994 30.9008 15.1632C31.9497 15.175 32.9962 15.2347 34.0402 15.3422C35.5958 15.5016 37.1476 15.7677 38.6274 16.2743C40.9073 17.0549 44.0682 18.4507 45.5213 20.3734C45.5364 20.3936 45.5461 20.4173 45.5495 20.4422C45.5529 20.4672 45.55 20.4926 45.5409 20.5161C45.5318 20.5396 45.5169 20.5605 45.4976 20.5766C45.4782 20.5928 45.4551 20.6038 45.4304 20.6086C42.5085 21.1701 34.2911 21.6186 31.0743 21.7998L29.9315 21.861Z" fill="#87CCE3"/>
<path d="M5.79273 23.7201C5.62684 24.2476 5.41036 24.7578 5.14631 25.2436C4.91361 25.6741 4.68746 26.187 4.18207 26.344C3.09789 26.6809 1.90789 26.6397 0.785912 26.6554C0.389162 26.6609 0.388004 27.2782 0.785912 27.2725C1.7486 27.2589 2.71142 27.2548 3.66332 27.0905C4.139 27.0083 4.60377 26.907 4.97866 26.5839C5.3362 26.2754 5.55566 25.7975 5.76933 25.3852C6.0189 24.9038 6.22586 24.4016 6.38786 23.8842C6.50678 23.5043 5.91114 23.3418 5.79273 23.7201Z" fill="#211715"/>
<path d="M3.48599 24.4787C3.42389 24.7906 3.41194 25.1252 3.28813 25.4217L3.31924 25.3479C3.31191 25.3649 3.30407 25.3815 3.29533 25.3978C3.25404 25.4684 3.24251 25.5526 3.26328 25.6318C3.28405 25.711 3.33542 25.7786 3.40609 25.8199C3.47675 25.8612 3.56093 25.8727 3.6401 25.852C3.71926 25.8312 3.78694 25.7798 3.82823 25.7092C4.00218 25.3853 4.01066 24.9963 4.08111 24.6421C4.10094 24.5617 4.08984 24.4768 4.05 24.4042C4.01938 24.3518 3.97397 24.3095 3.91944 24.2828C3.86492 24.256 3.80371 24.2459 3.74349 24.2538C3.68327 24.2617 3.62671 24.2872 3.5809 24.3271C3.5351 24.367 3.50208 24.4195 3.48599 24.478V24.4787Z" fill="#211715"/>
<path d="M48.9493 23.3691C49.5023 23.2971 50.0465 23.1691 50.5736 22.9873C50.9044 23.7937 51.144 24.6346 51.2878 25.4943C51.2195 25.4982 51.1736 25.5011 51.1736 25.5011C50.6039 25.5702 50.0307 25.607 49.4568 25.6113C49.3885 25.6151 49.3207 25.5982 49.2621 25.563C49.2099 25.5146 49.1749 25.4503 49.1628 25.3801C49.0019 24.7876 48.8534 24.1698 48.68 23.613C48.6721 23.5884 48.6698 23.5624 48.6731 23.5368C48.6764 23.5112 48.6854 23.4867 48.6993 23.4649C48.7131 23.4432 48.7317 23.4248 48.7535 23.411C48.7753 23.3972 48.7999 23.3884 48.8255 23.3852C48.8649 23.3807 48.906 23.3752 48.9493 23.3691Z" fill="white"/>
<path d="M13.894 35.0573C15.3445 35.0561 16.7949 35.0519 18.2453 35.0444C19.9343 35.0375 21.6235 35.0298 23.3126 35.0214C25.0849 35.0128 26.8572 35.0057 28.6296 34.9999C30.3297 34.9945 32.0298 34.992 33.7298 34.9923C35.196 34.9935 36.6622 34.9997 38.1284 35.0109C38.2904 35.0124 38.4524 35.014 38.6144 35.0157C39.0117 35.02 39.0119 34.4029 38.6144 34.3986C37.1804 34.3832 35.7463 34.3756 34.3122 34.3759C32.6315 34.3734 30.9508 34.3751 29.2702 34.3809C27.4983 34.3859 25.7264 34.3928 23.9546 34.4013C22.247 34.409 20.5395 34.4169 18.832 34.4249C17.3505 34.4311 15.8689 34.4359 14.3874 34.4391H13.894C13.497 34.4391 13.4962 35.0562 13.894 35.0562V35.0573Z" fill="#211715"/>
<path d="M3.68983 34.364C2.67135 34.2868 1.77564 33.9321 1.27603 32.9988C0.637196 31.8054 0.603641 30.4146 0.654938 29.0959C0.704307 27.8324 0.837628 26.4989 1.43918 25.3629C2.10849 24.0989 3.34155 23.3904 4.67618 22.9934C5.86399 22.6399 7.1049 22.4337 8.32407 22.2194C8.94401 22.1104 9.56446 22.0035 10.1836 21.8907C10.8938 21.7611 11.6351 21.6805 12.2646 21.2993C12.5695 21.0947 12.8542 20.8614 13.1146 20.6026C13.41 20.3355 13.708 20.0716 14.0087 19.8109C14.5781 19.3181 15.1583 18.8369 15.7554 18.3779C16.8367 17.5361 17.9854 16.7846 19.1898 16.1311C20.34 15.5138 21.5509 15.017 22.8033 14.6487C23.8003 14.3711 24.8155 14.1635 25.8415 14.0275C28.2832 13.6733 30.7505 13.5266 33.217 13.5892C35.5934 13.6567 37.9504 14.0384 40.2266 14.7243C41.4723 15.1081 42.681 15.6029 43.8381 16.2028C44.9351 16.7865 45.9399 17.529 46.82 18.4062C47.7981 19.3554 48.6725 20.4058 49.4287 21.5397C49.8436 22.146 50.1833 22.8005 50.4404 23.4887C50.6696 24.1686 50.8523 24.8632 50.9872 25.5679C51.2968 27.0487 51.5242 28.5394 51.2643 30.0479C51.1447 30.7442 50.9355 31.4221 50.6419 32.0646C50.416 32.5575 50.1346 32.9976 49.6821 33.3089C49.1271 33.6899 48.5052 33.9627 47.8489 34.113C47.462 34.202 47.6258 34.7971 48.013 34.708C49.2644 34.42 50.4814 33.7567 51.0764 32.5807C51.7381 31.2412 52.0539 29.7574 51.9952 28.2645C51.9555 27.4737 51.852 26.6874 51.6854 25.9133C51.5492 25.1636 51.3728 24.4217 51.157 23.6908C50.7042 22.2302 49.8457 20.9732 48.8919 19.7953C48.0811 18.7961 47.2159 17.8461 46.2015 17.0476C45.6788 16.6215 45.1282 16.2306 44.5535 15.8777C43.9123 15.5187 43.2491 15.2006 42.5678 14.9253C41.3772 14.4175 40.1429 14.019 38.8801 13.7348C37.6196 13.4351 36.3413 13.2157 35.053 13.0778C32.5825 12.8401 30.0609 12.9519 27.5963 13.1981C25.1757 13.44 22.7998 13.8525 20.548 14.803C17.847 15.9431 15.48 17.6977 13.289 19.6225C12.7164 20.1252 12.18 20.7631 11.4359 21.0051C11.0562 21.111 10.67 21.1921 10.2798 21.2478C9.91442 21.3154 9.54878 21.3812 9.18289 21.4453C7.96744 21.6594 6.75211 21.8688 5.54734 22.1388C4.11834 22.4589 2.63882 22.9406 1.61634 24.0484C0.697621 25.0431 0.316299 26.3686 0.148908 27.6834C-0.0353253 29.1301 -0.107193 30.6998 0.283901 32.1163C0.5589 33.1124 1.0441 34.0962 2.01104 34.5745C2.53919 34.8169 3.10925 34.955 3.68983 34.9811C4.08607 35.0109 4.08414 34.3937 3.68983 34.364Z" fill="#211715"/>
<path d="M21.1734 21.8241C19.8458 21.8529 18.5181 21.877 17.1903 21.8892C16.6411 21.8944 16.0919 21.8966 15.5427 21.896C15.3219 21.896 15.0859 21.8984 14.8742 21.8917C14.8784 21.8917 14.8844 21.8993 14.886 21.899C14.9083 21.8963 14.8658 21.902 14.8835 21.897C14.8486 21.9067 14.898 21.8656 14.8815 21.8977C14.8743 21.912 14.8655 21.9188 14.8826 21.8988C14.9357 21.8363 15.0292 21.7275 15.097 21.6496C15.7998 20.8151 16.5901 20.0584 17.4544 19.3926C18.4349 18.672 19.4846 18.0507 20.588 17.5377C21.75 16.9886 22.9579 16.5425 24.1978 16.2046C25.4799 15.8331 26.7973 15.5967 28.1286 15.4991C28.4558 15.4799 28.7834 15.4713 29.1113 15.4733C29.1314 15.4733 29.2133 15.4946 29.1932 15.4744C29.1867 15.5009 29.1824 15.528 29.1804 15.5552C29.1714 15.6092 29.1621 15.6634 29.153 15.7175C29.0771 16.1627 28.9987 16.6074 28.9203 17.0523C28.72 18.194 28.5217 19.3363 28.3466 20.4822C28.3032 20.7644 28.2615 21.0469 28.2215 21.3297C28.2229 21.4338 28.2049 21.5372 28.1687 21.6347C28.2474 21.5253 28.1972 21.6218 28.1952 21.6218C28.1639 21.626 28.1323 21.6272 28.1008 21.6253L27.8599 21.634C27.2799 21.6549 26.6999 21.6743 26.12 21.6924C24.8009 21.7339 23.4817 21.7703 22.1623 21.8016C21.8328 21.8094 21.5032 21.8169 21.1736 21.8241C20.7771 21.8328 20.7757 22.4499 21.1736 22.4412C22.6135 22.4098 24.0535 22.3724 25.4934 22.3289C26.1323 22.3096 26.7713 22.289 27.4103 22.2671C27.5521 22.2621 27.694 22.2571 27.8358 22.252C27.9981 22.2574 28.1605 22.2477 28.321 22.2232C28.6793 22.1408 28.7687 21.8376 28.8134 21.5194C28.9888 20.2723 29.1991 19.0309 29.4154 17.791C29.5065 17.2679 29.5992 16.7451 29.69 16.2225C29.7243 16.0248 29.7603 15.827 29.7912 15.6287C29.8418 15.3035 29.7059 14.9761 29.365 14.8809C29.2135 14.852 29.0587 14.8441 28.9051 14.8573C28.7165 14.8588 28.528 14.8638 28.3394 14.8723C27.9873 14.8881 27.6359 14.9156 27.2852 14.9547C26.5553 15.0351 25.8312 15.1611 25.1171 15.3321C23.7508 15.6532 22.4134 16.0868 21.1187 16.6286C19.9149 17.131 18.7633 17.7504 17.6806 18.4779C16.678 19.1651 15.7627 19.9718 14.9551 20.8801C14.7371 21.0961 14.5369 21.3294 14.3565 21.5776C14.283 21.6995 14.2538 21.8429 14.2737 21.9838C14.2936 22.1247 14.3614 22.2544 14.4657 22.3512C14.676 22.547 14.9724 22.5112 15.2371 22.5129C15.51 22.5146 15.7828 22.5151 16.0556 22.5143C17.3912 22.5115 18.7268 22.4907 20.0622 22.4651C20.4325 22.458 20.8028 22.4505 21.1731 22.4423C21.5698 22.4327 21.5713 21.8154 21.1734 21.8241Z" fill="#211715"/>
<path d="M38.9983 16.7005C39.4261 17.4073 39.8093 18.1401 40.1456 18.8948C40.5014 19.6438 40.8438 20.399 41.1789 21.1575C41.2205 21.2278 41.2882 21.2788 41.3672 21.2995C41.4463 21.3202 41.5303 21.309 41.6011 21.2682C41.6702 21.2255 41.7203 21.1578 41.7409 21.0792C41.7615 21.0006 41.7511 20.9171 41.7118 20.846C41.3767 20.0874 41.0343 19.3323 40.6785 18.5832C40.3422 17.8286 39.959 17.0958 39.531 16.389C39.3176 16.0555 38.7833 16.3646 38.9983 16.7004V16.7005Z" fill="#211715"/>
<path d="M30.2401 21.861C30.4346 20.3276 30.6872 18.802 30.9153 17.2733C30.973 16.8866 31.0291 16.4997 31.0836 16.1126C31.1093 15.9272 31.1345 15.7417 31.1591 15.5561C31.1638 15.5201 31.1695 15.4841 31.1733 15.448C31.1904 15.2876 31.1809 15.4185 31.1733 15.4174L31.0818 15.4742L31.2079 15.4765C31.2711 15.4778 31.3342 15.4792 31.3972 15.4809C32.1961 15.5015 32.9936 15.5499 33.7896 15.626C35.3405 15.7734 36.8895 16.0264 38.3727 16.5138C39.5225 16.8888 40.6422 17.3505 41.7221 17.8951C42.803 18.4434 43.8681 19.0863 44.7336 19.9443C44.8318 20.0417 44.927 20.1421 45.0191 20.2455C45.062 20.2934 45.1039 20.342 45.1448 20.3914C45.163 20.4131 45.1809 20.4349 45.1986 20.457C45.268 20.543 45.2396 20.5598 45.3014 20.4184C45.3665 20.2718 45.3513 20.3104 45.2566 20.3284C45.2165 20.3357 45.1762 20.3431 45.136 20.3501C45.0503 20.365 44.9646 20.3794 44.8788 20.3932C44.6989 20.4222 44.5189 20.449 44.3389 20.4737C44.1832 20.4954 43.9906 20.5204 43.785 20.5454C41.6997 20.8006 39.6011 20.9539 37.5059 21.099C35.5334 21.2357 33.559 21.3515 31.5854 21.4625L31.0738 21.4913C30.6789 21.5135 30.6763 22.1308 31.0738 22.1084C33.0432 21.9974 35.0125 21.8848 36.9806 21.752C39.1947 21.6026 41.4121 21.445 43.6163 21.183C44.052 21.1315 44.4874 21.0747 44.921 21.0075C45.0956 20.9804 45.2698 20.9514 45.4435 20.919C45.5134 20.91 45.5806 20.886 45.6405 20.8488C45.7004 20.8115 45.7516 20.7619 45.7906 20.7032C45.917 20.5008 45.8455 20.2918 45.7119 20.1199C44.9484 19.1371 43.891 18.3971 42.8192 17.7855C41.673 17.1442 40.4743 16.6015 39.2361 16.163C37.7707 15.6414 36.2508 15.2878 34.7057 15.1088C33.8682 15.0049 33.0275 14.9331 32.1836 14.8932C31.9841 14.8834 31.7845 14.8754 31.5849 14.8692C31.3792 14.8626 31.1349 14.8219 30.9354 14.878C30.5137 14.997 30.5475 15.5138 30.4993 15.863C30.2745 17.4896 30.0056 19.1096 29.7742 20.7356C29.7208 21.1106 29.67 21.4859 29.6218 21.8614C29.6222 21.9431 29.6549 22.0214 29.7126 22.0791C29.7704 22.1369 29.8487 22.1696 29.9304 22.17C30.0116 22.168 30.089 22.1349 30.1464 22.0775C30.2039 22.02 30.237 21.9426 30.2389 21.8614L30.2401 21.861Z" fill="#211715"/>
<path d="M29.0535 22.8627C28.912 23.8577 28.7835 24.8498 28.7405 25.8545C28.69 27.0314 28.6651 28.2092 28.6572 29.3872C28.6528 30.0459 28.6511 30.7046 28.6519 31.3633C28.6519 31.7604 29.2691 31.761 29.2691 31.3633C29.2691 30.1919 29.2691 29.0203 29.2936 27.8491C29.3147 26.8298 29.3322 25.8037 29.4268 24.7879C29.4818 24.1987 29.565 23.6125 29.6484 23.0266C29.6675 22.9478 29.6559 22.8647 29.6158 22.7942C29.5758 22.7236 29.5104 22.671 29.433 22.647C29.3541 22.6258 29.27 22.6366 29.199 22.6769C29.128 22.7173 29.0757 22.7841 29.0535 22.8627Z" fill="#211715"/>
<path d="M15.0351 23.5498C14.7203 24.4897 14.5378 25.4689 14.4929 26.4592C14.4622 27.5028 14.4912 28.5473 14.5797 29.5877C14.6264 30.1707 14.6905 30.7523 14.7765 31.3309C14.7987 31.4095 14.851 31.4762 14.922 31.5166C14.9931 31.5569 15.0772 31.5677 15.1561 31.5465C15.2338 31.523 15.2996 31.4704 15.3397 31.3998C15.3799 31.3291 15.3913 31.2457 15.3717 31.1668C15.2301 30.1746 15.1446 29.1751 15.1156 28.1732C15.083 27.2347 15.0568 26.2735 15.2227 25.3458C15.3213 24.7932 15.4575 24.248 15.6301 23.7138C15.7527 23.3351 15.1571 23.1728 15.0351 23.5498Z" fill="#211715"/>
<path d="M16.0886 33.0081C17.1158 33.0135 18.1432 33.0112 19.1704 33.01C20.7725 33.0084 22.3745 33.0054 23.9765 33.0011C25.7466 32.997 27.5165 32.9924 29.2863 32.9871C30.7761 32.9829 32.2658 32.9786 33.7556 32.9743C34.5568 32.9719 35.3579 32.9696 36.1591 32.9675H36.2455C36.6425 32.9675 36.6431 32.3503 36.2455 32.3503C35.558 32.3503 34.8705 32.3539 34.183 32.356L29.8982 32.3689C28.1381 32.374 26.378 32.3788 24.618 32.3831C22.9744 32.3872 21.3308 32.3904 19.6871 32.3929C18.5662 32.3944 17.4451 32.3965 16.3241 32.3929L16.0882 32.392C15.6911 32.3898 15.6906 33.0069 16.0882 33.0091L16.0886 33.0081Z" fill="#211715"/>
<path d="M41.6623 22.5888C41.9091 23.2179 42.1203 23.8604 42.2949 24.5133C42.5036 25.2267 42.7048 25.9439 42.8723 26.6683C42.9 26.7882 42.9272 26.9084 42.9495 27.0295C42.9537 27.0531 42.9559 27.0775 42.9614 27.1006C42.9709 27.141 42.9588 27.013 42.9578 27.0749C42.9578 27.0868 42.9645 27.105 42.9604 27.1164C42.9746 27.0491 43.0034 26.9857 43.0446 26.9307L43.2631 26.8407C42.7342 26.8459 42.2059 26.878 41.6803 26.937C41.1063 27.0105 40.5463 27.1682 40.0183 27.4048C39.1654 27.7722 38.4714 28.4318 38.0612 29.2649C38.022 29.336 38.0116 29.4195 38.0322 29.498C38.0528 29.5766 38.1028 29.6442 38.1719 29.687C38.2427 29.7275 38.3266 29.7387 38.4056 29.718C38.4846 29.6973 38.5523 29.6464 38.5941 29.5763C38.7814 29.1756 39.0476 28.8167 39.3766 28.5211C39.6812 28.2663 40.0235 28.0603 40.3913 27.9105C40.8892 27.7016 41.4163 27.5704 41.9541 27.5214C42.202 27.4966 42.4509 27.4829 42.6998 27.4745C42.82 27.4703 42.9403 27.467 43.0605 27.4637C43.2047 27.4597 43.3701 27.4778 43.4812 27.3674C43.6242 27.2252 43.5727 27.0154 43.5403 26.8413C43.5004 26.6261 43.4479 26.4131 43.3953 26.2007C43.2355 25.5555 43.0573 24.915 42.8697 24.2771C42.7004 23.6487 42.4962 23.0303 42.2582 22.4246C42.2341 22.3472 42.1815 22.2818 42.111 22.2418C42.0405 22.2017 41.9574 22.1901 41.8786 22.2091C41.7998 22.2311 41.7328 22.2833 41.6923 22.3544C41.6518 22.4255 41.641 22.5098 41.6623 22.5888Z" fill="#211715"/>
<path d="M50.4409 22.7096C50.0534 22.8443 49.6548 22.9448 49.2496 23.0099C49.1607 23.026 49.0715 23.0409 48.9822 23.0546C48.9353 23.0618 48.8883 23.0687 48.8415 23.0753C48.8552 23.0734 48.8881 23.0688 48.8255 23.0773C48.7861 23.0806 48.747 23.0869 48.7085 23.0962C48.4086 23.1844 48.3204 23.4917 48.4034 23.7637C48.553 24.2534 48.6757 24.7508 48.807 25.2456C48.875 25.5028 48.9322 25.7825 49.2147 25.8815C49.4095 25.9297 49.6114 25.9427 49.8108 25.9201C50.2663 25.9048 50.7202 25.8558 51.1736 25.8109C51.2548 25.8087 51.332 25.7755 51.3894 25.7181C51.4467 25.6607 51.48 25.5835 51.4822 25.5024C51.4816 25.4207 51.4489 25.3426 51.3912 25.2848C51.3334 25.2271 51.2553 25.1944 51.1736 25.1938C50.8329 25.2271 50.4922 25.2623 50.1508 25.2852C49.9818 25.2965 49.8126 25.3053 49.6434 25.3066C49.568 25.2954 49.4915 25.2938 49.4156 25.3018C49.4275 25.2917 49.3385 25.2213 49.4492 25.3289C49.5218 25.3998 49.4647 25.3426 49.4646 25.3268C49.4646 25.3482 49.4619 25.3054 49.4602 25.2994C49.4511 25.2675 49.4429 25.2351 49.4345 25.2031C49.3202 24.7771 49.2138 24.349 49.0938 23.9246C49.0653 23.8238 49.0359 23.7233 49.0056 23.623C49.0013 23.5996 48.9943 23.5767 48.9848 23.5549C48.9566 23.5099 48.9842 23.5677 48.9766 23.5934C48.9629 23.6397 48.911 23.6577 48.8866 23.6834C48.8523 23.6915 48.848 23.6935 48.8737 23.6892L48.9311 23.6816C49.1059 23.6582 49.28 23.6306 49.4534 23.599C49.845 23.5344 50.2302 23.4364 50.605 23.3058C50.6827 23.2823 50.7484 23.2297 50.7885 23.1591C50.8286 23.0885 50.84 23.0051 50.8204 22.9263C50.7981 22.8478 50.7458 22.7811 50.6748 22.7408C50.6038 22.7005 50.5198 22.6897 50.4409 22.7107V22.7096Z" fill="#211715"/>
<path d="M27.9718 24.3585C27.9664 24.0963 28.0037 23.8011 27.8149 23.5906C27.7577 23.5291 27.6884 23.4801 27.6114 23.4468C27.5343 23.4134 27.4512 23.3965 27.3672 23.397C27.2012 23.392 27.0343 23.397 26.8684 23.397H25.3463C25.3031 23.397 25.2595 23.3953 25.2163 23.397C25.0944 23.3983 24.9759 23.4372 24.877 23.5084C24.778 23.5796 24.7035 23.6796 24.6635 23.7948C24.6339 23.9123 24.6252 24.0342 24.6378 24.1548C24.6305 24.2903 24.6443 24.4262 24.6785 24.5576C24.7198 24.6701 24.7944 24.7674 24.8923 24.8366C24.9901 24.9058 25.1067 24.9436 25.2266 24.9451C25.6395 24.9609 26.0561 24.9451 26.4693 24.9451H27.2587C27.3023 24.9451 27.3464 24.947 27.39 24.9451C27.5438 24.9416 27.6904 24.8786 27.7987 24.7693C27.9071 24.66 27.9689 24.5129 27.9711 24.3591C27.9711 24.2772 27.9386 24.1987 27.8807 24.1409C27.8228 24.083 27.7443 24.0505 27.6625 24.0505C27.5807 24.0505 27.5022 24.083 27.4443 24.1409C27.3865 24.1987 27.354 24.2772 27.354 24.3591C27.3561 24.3138 27.4134 24.3407 27.3658 24.3279C27.3129 24.3218 27.2594 24.3218 27.2065 24.3279H25.3423C25.3284 24.3279 25.2368 24.3171 25.2283 24.3279C25.2283 24.3272 25.2452 24.3395 25.2554 24.3458C25.2708 24.3555 25.2494 24.3993 25.26 24.3488C25.2649 24.2841 25.263 24.2191 25.2544 24.1548C25.2536 24.1283 25.2616 23.9516 25.2362 24.0065C25.2283 24.0236 25.2105 24.0042 25.2203 24.0146C25.2319 24.0275 25.3278 24.0146 25.345 24.0146H27.2647C27.3034 24.0196 27.3425 24.0196 27.3812 24.0146C27.3721 24.0283 27.3344 23.9768 27.3468 23.9727C27.3403 24.1013 27.343 24.2302 27.3547 24.3584C27.3628 24.755 27.9799 24.7564 27.9718 24.3585Z" fill="#211715"/>
<path d="M40.9616 24.3585C40.9562 24.0963 40.9935 23.8011 40.8046 23.5906C40.7475 23.5291 40.6782 23.4801 40.6011 23.4468C40.5241 23.4134 40.4409 23.3965 40.3569 23.397C40.1911 23.392 40.0241 23.397 39.8581 23.397H38.336C38.2928 23.397 38.2493 23.3953 38.2061 23.397C38.0842 23.3983 37.9657 23.4372 37.8667 23.5084C37.7678 23.5796 37.6932 23.6796 37.6532 23.7948C37.6237 23.9123 37.615 24.0342 37.6275 24.1548C37.6207 24.2902 37.6349 24.4259 37.6694 24.557C37.7108 24.6696 37.7853 24.7669 37.8832 24.8361C37.981 24.9053 38.0976 24.9431 38.2175 24.9445C38.6305 24.9603 39.0471 24.9445 39.4602 24.9445H40.2496C40.2932 24.9445 40.3373 24.9465 40.3809 24.9445C40.5347 24.9411 40.6813 24.8781 40.7896 24.7688C40.898 24.6595 40.9598 24.5124 40.962 24.3585C40.962 24.2767 40.9295 24.1982 40.8716 24.1404C40.8137 24.0825 40.7352 24.05 40.6534 24.05C40.5716 24.05 40.4931 24.0825 40.4352 24.1404C40.3774 24.1982 40.3449 24.2767 40.3449 24.3585C40.347 24.3133 40.4043 24.3402 40.3567 24.3274C40.3038 24.3213 40.2503 24.3213 40.1974 24.3274H38.3332C38.3193 24.3274 38.2277 24.3166 38.2192 24.3274C38.2192 24.3267 38.2361 24.339 38.2463 24.3453C38.2617 24.3549 38.2403 24.3988 38.2509 24.3483C38.2558 24.2836 38.2539 24.2185 38.2453 24.1542C38.2445 24.1278 38.2525 23.9511 38.2271 24.006C38.2192 24.0231 38.2014 24.0037 38.2112 24.0141C38.2228 24.027 38.3187 24.0141 38.3359 24.0141H40.2543C40.293 24.0191 40.3322 24.0191 40.3708 24.0141C40.3617 24.0277 40.324 23.9763 40.3364 23.9722C40.3299 24.1008 40.3326 24.2297 40.3443 24.3579C40.3526 24.755 40.9697 24.7564 40.9616 24.3585Z" fill="#211715"/>
<path d="M17.996 22.7382C17.8856 22.8348 17.7835 22.9404 17.6908 23.0541C17.629 23.1274 17.5717 23.2043 17.5192 23.2844C17.4514 23.3773 17.4106 23.487 17.4011 23.6015C17.4006 23.6641 17.4165 23.7257 17.4472 23.7802C17.4779 23.8347 17.5223 23.8802 17.5761 23.9122C17.6514 23.9501 17.7339 23.9716 17.8182 23.9753C17.9024 23.986 17.987 23.9932 18.0717 23.9977C18.166 24.0025 18.2605 24.0042 18.3546 24.0038C18.415 24.0054 18.4756 24.003 18.5357 23.9966C18.5932 23.9906 18.6484 23.9709 18.6969 23.9394C18.7453 23.9078 18.7855 23.8652 18.8143 23.8151C18.8589 23.701 18.8874 23.5812 18.899 23.4592C18.9213 23.3543 18.9483 23.2506 18.9799 23.148C19.0007 23.0691 18.9897 22.9852 18.9493 22.9144C18.909 22.8435 18.8425 22.7912 18.764 22.7688C18.6853 22.7489 18.6019 22.7601 18.5312 22.8002C18.4605 22.8403 18.4081 22.9061 18.3848 22.9839C18.3551 23.081 18.329 23.1792 18.3076 23.2785C18.2973 23.3268 18.2878 23.3753 18.2791 23.4239C18.2738 23.4757 18.2645 23.5269 18.2511 23.5772L18.2822 23.5036L18.2747 23.5164L18.3229 23.454L18.3143 23.4621L18.3767 23.4138L18.3647 23.4205L18.4384 23.3894C18.4306 23.3932 18.4221 23.3954 18.4135 23.396L18.4955 23.3849C18.2643 23.3924 18.0329 23.3828 17.8032 23.3561L17.8852 23.3672C17.8667 23.3653 17.8483 23.3618 17.8304 23.3568L17.9041 23.3879C17.8965 23.385 17.8894 23.3809 17.883 23.3758L17.9455 23.424L17.9371 23.4155L17.9855 23.478L17.9794 23.4677L18.0105 23.5415L18.0071 23.527L18.0181 23.609L18.019 23.5938L18.008 23.676C18.0113 23.6625 18.0156 23.6494 18.0208 23.6365L17.9897 23.7102C18.0298 23.6254 18.08 23.5457 18.1392 23.473L18.091 23.5353C18.193 23.4044 18.3072 23.2836 18.4322 23.1745C18.4897 23.1164 18.522 23.038 18.522 22.9563C18.522 22.8746 18.4897 22.7962 18.4322 22.7381C18.3734 22.682 18.2953 22.6508 18.214 22.6508C18.1328 22.6508 18.0547 22.682 17.9959 22.7381L17.996 22.7382Z" fill="#211715"/>
<path d="M18.682 23.066C18.6261 23.2482 18.5843 23.4344 18.557 23.623C18.5559 23.6406 18.5502 23.6575 18.5407 23.6723C18.5287 23.6848 18.5124 23.6925 18.495 23.6936C18.2535 23.7025 18.0116 23.6914 17.7719 23.6606C17.7597 23.6598 17.7479 23.6561 17.7375 23.6496C17.7271 23.6432 17.7185 23.6343 17.7125 23.6237C17.707 23.6037 17.7094 23.5824 17.7194 23.5643C17.8448 23.3325 18.0126 23.1263 18.2141 22.9564L18.682 23.066Z" fill="#211715"/>
<path d="M17.5194 20.9207C17.5096 20.689 17.5752 20.4604 17.7063 20.2691C17.9085 20.0397 18.1846 19.8882 18.4867 19.841L18.8554 19.8281C18.9652 19.8383 19.0701 19.8786 19.1586 19.9445C19.247 20.0104 19.3156 20.0994 19.3568 20.2017C19.4376 20.505 19.3954 21.195 19.4031 21.3294C19.4234 21.7801 19.4118 22.2317 19.3684 22.6807C19.3472 22.8653 19.2208 23.0611 18.8989 22.9944C18.5769 22.9277 18.1094 22.867 17.9622 22.6895C17.8113 22.4736 17.7115 22.2262 17.6706 21.966C17.5959 21.6215 17.5454 21.2722 17.5194 20.9207Z" fill="white"/>
<path d="M17.8279 20.9206C17.833 20.6713 17.8985 20.4627 18.0812 20.3337C18.1825 20.2608 18.295 20.205 18.4144 20.1685C18.473 20.1491 18.5348 20.1414 18.5963 20.146C18.7725 20.14 18.9013 20.0987 19.0235 20.236C19.0646 20.2879 19.0858 20.3528 19.0833 20.419C19.0962 20.5552 19.0989 20.692 19.0993 20.8288C19.1008 21.2902 19.1151 21.7545 19.0951 22.2154C19.0892 22.3523 19.0823 22.4982 19.0667 22.6296C19.0642 22.6504 19.0559 22.6705 19.0514 22.6908C19.0629 22.6403 19.0314 22.7221 19.0473 22.6974C19.0633 22.6727 19.0891 22.6948 19.0356 22.7029C19.0662 22.6983 18.9958 22.6989 18.9994 22.6989C18.8736 22.6871 18.7493 22.6632 18.6281 22.6277C18.4974 22.6075 18.3696 22.5714 18.2478 22.52C18.1895 22.491 18.2041 22.5005 18.1732 22.4579C18.127 22.3905 18.0904 22.3169 18.0647 22.2393C18.0135 22.0869 17.9739 21.9309 17.9463 21.7725C17.8814 21.4927 17.8418 21.2077 17.8279 20.9209C17.8247 20.5239 17.2076 20.523 17.2108 20.9209C17.2272 21.2629 17.2743 21.6028 17.3513 21.9365C17.4219 22.3041 17.5283 22.766 17.85 22.9983C18.1291 23.1999 18.5377 23.249 18.869 23.3012C18.9569 23.3209 19.0478 23.3224 19.1363 23.3057C19.2247 23.2889 19.3088 23.2543 19.3835 23.2039C19.4581 23.1536 19.5216 23.0885 19.5702 23.0127C19.6188 22.9369 19.6515 22.852 19.6661 22.7632C19.7723 22.1399 19.7165 21.4806 19.7162 20.8499C19.7162 20.5122 19.7306 20.1213 19.5027 19.8484C19.4049 19.7342 19.281 19.6452 19.1415 19.589C19.002 19.5327 18.851 19.5109 18.7014 19.5253C18.3703 19.5229 18.0459 19.619 17.7695 19.8012C17.3838 20.0624 17.2199 20.4627 17.2105 20.9209C17.2028 21.3179 17.8199 21.3177 17.8279 20.9206Z" fill="#211715"/>
<path d="M6.38777 23.8837C6.4249 23.7645 6.42579 23.637 6.39031 23.5173C6.35483 23.3976 6.28458 23.2911 6.1885 23.2114C5.98562 23.0434 5.74225 23.0042 5.49206 22.9513C4.99349 22.8459 4.49029 22.7629 3.9867 22.6852C3.90789 22.666 3.82472 22.6776 3.75418 22.7176C3.68363 22.7577 3.63105 22.8232 3.60718 22.9007C3.58601 22.9796 3.59675 23.0636 3.63707 23.1346C3.6774 23.2057 3.74406 23.258 3.82265 23.2802C4.24923 23.346 4.67516 23.4161 5.09865 23.4995C5.30298 23.5267 5.50476 23.5703 5.70201 23.6302C5.72387 23.6392 5.74498 23.65 5.76513 23.6624C5.77169 23.6662 5.81244 23.6965 5.78313 23.673C5.75382 23.6494 5.7938 23.6851 5.79882 23.6898C5.81052 23.7027 5.81064 23.7019 5.79959 23.6878C5.78853 23.6736 5.78866 23.6727 5.7983 23.6878C5.80794 23.7028 5.80756 23.7023 5.80074 23.6857C5.79393 23.6691 5.7947 23.6685 5.8001 23.6857C5.8055 23.7029 5.80537 23.7029 5.80267 23.6857C5.79997 23.6685 5.80074 23.6683 5.80126 23.6878C5.79213 23.7428 5.82401 23.6113 5.79277 23.7202C5.77102 23.7991 5.7815 23.8834 5.82191 23.9545C5.86232 24.0257 5.92935 24.0779 6.00825 24.0997C6.08715 24.1214 6.17146 24.111 6.24264 24.0705C6.31381 24.0301 6.36602 23.9631 6.38777 23.8842V23.8837Z" fill="#211715"/>
<path d="M9.3921 29.6576C6.71423 29.6576 4.86328 31.7316 4.86328 34.1586C4.86328 36.968 6.6151 38.744 9.39223 38.744C12.2335 38.744 13.9212 36.968 13.9212 34.1586C13.9212 31.7151 12.0606 29.6576 9.3921 29.6576Z" fill="#211715"/>
<path d="M43.1189 29.6576C40.4412 29.6576 38.5902 31.7316 38.5902 34.1586C38.5902 36.968 40.342 38.744 43.1192 38.744C45.9604 38.744 47.6481 36.968 47.6481 34.1586C47.6481 31.7151 45.7874 29.6576 43.1189 29.6576Z" fill="#211715"/>
<path d="M9.39217 29.349C8.30308 29.3428 7.24274 29.6982 6.37733 30.3595C5.58608 30.9812 5.01294 31.8383 4.7407 32.8071C4.21037 34.6841 4.7587 36.9469 6.35419 38.1408C7.12558 38.7184 8.08505 38.9885 9.03784 39.0426C10.0406 39.0994 11.0847 38.9351 11.9745 38.4512C13.7004 37.5136 14.4283 35.441 14.1921 33.5596C14.0705 32.5329 13.624 31.572 12.9178 30.817C12.2061 30.0732 11.2705 29.5827 10.2539 29.4203C9.96908 29.3743 9.68071 29.3508 9.39217 29.349C8.99503 29.3472 8.9949 29.9638 9.39255 29.9656C10.344 29.9567 11.2715 30.2637 12.0297 30.8386C12.7206 31.3843 13.2196 32.136 13.4542 32.9846C13.687 33.8743 13.6713 34.8108 13.4088 35.6922C13.2015 36.4459 12.7615 37.1149 12.1517 37.6038C11.4653 38.1056 10.6446 38.3907 9.79496 38.4225C8.90684 38.4779 7.9795 38.3558 7.19474 37.9418C6.49384 37.573 5.93347 36.9843 5.59977 36.266C5.22972 35.4385 5.09232 34.5257 5.20238 33.6259C5.30305 32.727 5.69743 31.8864 6.32439 31.2345C6.95135 30.5825 7.77588 30.1555 8.67015 30.0198C8.90902 29.9828 9.15084 29.9644 9.39255 29.9656C9.78956 29.9639 9.78995 29.3472 9.39217 29.349Z" fill="#211715"/>
<path d="M9.39225 32.6029C9.1828 32.5987 8.97465 32.6367 8.78018 32.7146C8.58572 32.7925 8.40892 32.9088 8.2603 33.0564C8.11168 33.2041 7.99428 33.3801 7.91509 33.5741C7.8359 33.768 7.79653 33.9759 7.79933 34.1854C7.79933 35.1735 8.41554 35.7982 9.39225 35.7982C10.3918 35.7982 10.9852 35.1735 10.9852 34.1854C10.9882 33.9759 10.9489 33.7679 10.8698 33.5738C10.7907 33.3798 10.6733 33.2037 10.5246 33.056C10.376 32.9083 10.1991 32.7921 10.0045 32.7142C9.80999 32.6364 9.60175 32.5985 9.39225 32.6029Z" fill="white"/>
<path d="M43.1189 29.349C42.0298 29.3429 40.9695 29.6983 40.1041 30.3595C39.3129 30.9813 38.7398 31.8384 38.4676 32.8072C37.9371 34.6842 38.4856 36.9469 40.0809 38.1409C40.8523 38.7184 41.8119 38.9885 42.7647 39.0427C43.7675 39.0995 44.8116 38.9352 45.7012 38.4513C47.4271 37.5136 48.155 35.4411 47.9189 33.5596C47.7973 32.533 47.3508 31.5721 46.6445 30.8171C45.9328 30.0732 44.9973 29.5827 43.9807 29.4204C43.6958 29.3744 43.4078 29.3503 43.1193 29.3485C42.7222 29.3467 42.7216 29.9638 43.1193 29.9656C44.0707 29.9568 44.9982 30.2638 45.7564 30.8387C46.4474 31.3844 46.9463 32.1361 47.1809 32.9847C47.4138 33.8744 47.3981 34.8109 47.1356 35.6923C46.9283 36.4459 46.4884 37.1149 45.8785 37.6039C45.1921 38.1057 44.3714 38.3908 43.5217 38.4226C42.6337 38.478 41.7062 38.3559 40.9215 37.9419C40.2206 37.5731 39.6602 36.9843 39.3265 36.2661C38.9565 35.4385 38.8191 34.5258 38.9291 33.626C39.0298 32.7271 39.4242 31.8865 40.0511 31.2345C40.6781 30.5826 41.5026 30.1556 42.3969 30.0199C42.6358 29.9829 42.8772 29.9648 43.1189 29.966C43.5159 29.9643 43.5168 29.3472 43.1189 29.349Z" fill="#211715"/>
<path d="M43.119 32.6029C42.9096 32.5987 42.7015 32.6367 42.507 32.7147C42.3126 32.7926 42.1358 32.9088 41.9872 33.0565C41.8386 33.2041 41.7213 33.3802 41.6421 33.5741C41.5629 33.768 41.5236 33.9759 41.5264 34.1854C41.5264 35.1735 42.1425 35.7982 43.1193 35.7982C44.1188 35.7982 44.7122 35.1735 44.7122 34.1854C44.7152 33.9758 44.6759 33.7678 44.5968 33.5738C44.5177 33.3797 44.4002 33.2036 44.2516 33.0559C44.1029 32.9083 43.926 32.792 43.7314 32.7142C43.5368 32.6363 43.3286 32.5985 43.119 32.6029Z" fill="white"/>
</g>
<defs>
<clipPath id="clip0_769_184">
<rect width="52" height="52" fill="white"/>
</clipPath>
</defs>
</svg>
