<svg width="32" height="33" viewBox="0 0 32 33" fill="none" xmlns="http://www.w3.org/2000/svg">
<path fill-rule="evenodd" clip-rule="evenodd" d="M8.50508 31.1049C9.00777 31.3767 9.57937 31.5234 10.1668 31.5234C13.4134 31.5234 19.2638 31.5234 21.5942 31.5234C22.5488 31.5234 23.4582 31.1365 24.0998 30.4582L29.3334 24.9274C31.5554 22.7795 31.848 20.8511 31.4018 19.5956C30.6291 17.4237 27.4932 16.5748 25.1831 18.7977C25.1831 18.7977 22.5816 21.3011 21.3265 22.5088C21.1142 22.7132 20.8272 22.8273 20.5279 22.8273H19.0548C19.1497 22.5121 19.2039 22.1523 19.2039 21.7403C19.2039 18.4847 15.8252 18.4792 15.8161 18.4792H10.1668C9.57937 18.4792 9.00777 18.626 8.50508 18.8977C7.90298 17.9923 6.8479 17.3922 5.64821 17.3922H3.38893C1.51711 17.3922 0 18.8521 0 20.6533V29.3494C0 31.1506 1.51711 32.6104 3.38893 32.6104H5.64821C6.8479 32.6104 7.90298 32.0104 8.50508 31.1049ZM6.77786 20.6533V29.3494C6.77786 29.9494 6.27178 30.4364 5.64821 30.4364H3.38893C2.76537 30.4364 2.25929 29.9494 2.25929 29.3494V20.6533C2.25929 20.0532 2.76537 19.5663 3.38893 19.5663H5.64821C6.27178 19.5663 6.77786 20.0532 6.77786 20.6533ZM9.03714 21.7403V28.2624C9.03714 28.5504 9.15575 28.8276 9.36813 29.0309C9.57937 29.2353 9.86743 29.3494 10.1668 29.3494H21.5942C21.9128 29.3494 22.2156 29.22 22.4302 28.9939C23.9812 27.3547 27.6796 23.4458 27.6977 23.4273L27.7169 23.4099C29.068 22.1088 29.5345 21.0587 29.2645 20.2989C28.9584 19.4391 27.6955 19.4554 26.7804 20.3348C26.7804 20.3348 24.1789 22.8382 22.9238 24.0459C22.2879 24.6578 21.4259 25.0013 20.5279 25.0013H12.4261C11.8025 25.0013 11.2964 24.5144 11.2964 23.9143C11.2964 23.3143 11.8025 22.8273 12.4261 22.8273H15.815C15.815 22.8273 16.9446 22.8273 16.9446 21.7403C16.9446 20.6544 15.8173 20.6533 15.815 20.6533H10.1668C9.86743 20.6533 9.57937 20.7674 9.36813 20.9718C9.15575 21.175 9.03714 21.4522 9.03714 21.7403ZM29.3707 11.9572V3.26104C29.3707 2.39578 29.0138 1.56639 28.3778 0.955483C27.7429 0.343494 26.881 0 25.9818 0C21.653 0 12.2363 0 7.9075 0C7.0083 0 6.14638 0.343494 5.51153 0.955483C4.87554 1.56639 4.51857 2.39578 4.51857 3.26104V11.9572C4.51857 12.8224 4.87554 13.6518 5.51153 14.2627C6.14638 14.8747 7.0083 15.2182 7.9075 15.2182C12.2363 15.2182 21.653 15.2182 25.9818 15.2182C26.881 15.2182 27.7429 14.8747 28.3778 14.2627C29.0138 13.6518 29.3707 12.8224 29.3707 11.9572ZM27.1114 3.26104V11.9572C27.1114 12.2452 26.9928 12.5224 26.7804 12.7257C26.5692 12.93 26.2811 13.0442 25.9818 13.0442H7.9075C7.60814 13.0442 7.32009 12.93 7.10884 12.7257C6.89647 12.5224 6.77786 12.2452 6.77786 11.9572V3.26104C6.77786 2.97299 6.89647 2.6958 7.10884 2.49252C7.32009 2.28817 7.60814 2.17403 7.9075 2.17403H25.9818C26.2811 2.17403 26.5692 2.28817 26.7804 2.49252C26.9928 2.6958 27.1114 2.97299 27.1114 3.26104ZM23.7225 11.9572H24.8521C25.4757 11.9572 25.9818 11.4702 25.9818 10.8701C25.9818 10.2701 25.4757 9.78313 24.8521 9.78313H23.7225C23.0989 9.78313 22.5929 10.2701 22.5929 10.8701C22.5929 11.4702 23.0989 11.9572 23.7225 11.9572ZM16.9446 4.34806C15.074 4.34806 13.5557 5.80901 13.5557 7.6091C13.5557 9.4092 15.074 10.8701 16.9446 10.8701C18.8153 10.8701 20.3336 9.4092 20.3336 7.6091C20.3336 5.80901 18.8153 4.34806 16.9446 4.34806ZM16.9446 6.52209C17.5682 6.52209 18.0743 7.00907 18.0743 7.6091C18.0743 8.20914 17.5682 8.69612 16.9446 8.69612C16.3211 8.69612 15.815 8.20914 15.815 7.6091C15.815 7.00907 16.3211 6.52209 16.9446 6.52209ZM9.03714 5.43507H10.1668C10.7903 5.43507 11.2964 4.94809 11.2964 4.34806C11.2964 3.74803 10.7903 3.26104 10.1668 3.26104H9.03714C8.41358 3.26104 7.9075 3.74803 7.9075 4.34806C7.9075 4.94809 8.41358 5.43507 9.03714 5.43507Z" fill="#1990A7"/>
</svg>
