<svg width="18" height="18" viewBox="0 0 18 18" fill="none" xmlns="http://www.w3.org/2000/svg">
<g clip-path="url(#clip0_311_177)">
<path d="M8.99977 7.23264e-06C11.0828 -0.000588181 13.1015 0.721128 14.712 2.04217C16.3225 3.36321 17.4251 5.20183 17.8319 7.24472C18.2387 9.28761 17.9245 11.4083 16.9429 13.2456C15.9613 15.0828 14.373 16.5227 12.4487 17.3201C10.5244 18.1175 8.38307 18.2229 6.38971 17.6184C4.39635 17.014 2.67428 15.737 1.51694 14.0051C0.359601 12.2732 -0.161385 10.1936 0.0427606 8.1206C0.246907 6.04763 1.16355 4.10959 2.63649 2.63673C3.47107 1.79959 4.4629 1.13569 5.55494 0.683185C6.64698 0.230682 7.8177 -0.00149388 8.99977 7.23264e-06ZM9.46267 8.08302C9.6405 8.17288 9.78854 8.31227 9.88894 8.48438H11.3391C11.3124 8.42031 11.3029 8.35033 11.3116 8.28144C11.3204 8.21256 11.347 8.14717 11.3889 8.0918C11.4526 8.01028 11.5458 7.95717 11.6484 7.944C11.751 7.93084 11.8546 7.95868 11.9368 8.02149L12.7996 8.688C12.8455 8.72438 12.8825 8.7707 12.9079 8.82348C12.9333 8.87626 12.9463 8.93412 12.9461 8.99268V9.00147C12.9464 9.06026 12.9334 9.11837 12.9081 9.1714C12.8827 9.22444 12.8456 9.27102 12.7996 9.30762L11.9368 9.97266C11.8692 10.0234 11.7869 10.0507 11.7024 10.0506C11.6178 10.0505 11.5357 10.0229 11.4682 9.97196C11.4007 9.92103 11.3517 9.84955 11.3284 9.76829C11.3051 9.68704 11.3089 9.60042 11.3391 9.52149H9.88747C9.80874 9.65252 9.7017 9.76429 9.5742 9.84862C9.4467 9.93294 9.30196 9.9877 9.15057 10.0089C8.99918 10.03 8.84497 10.0171 8.69923 9.97099C8.55349 9.92487 8.4199 9.84676 8.30824 9.74236C8.19658 9.63796 8.10967 9.50991 8.05388 9.36759C7.9981 9.22527 7.97483 9.07228 7.9858 8.91981C7.99676 8.76734 8.04168 8.61925 8.11726 8.48637C8.19284 8.3535 8.29718 8.23921 8.42263 8.15186L8.43435 6.16846C8.35463 6.20135 8.26626 6.20686 8.18308 6.18414C8.09989 6.16142 8.0266 6.11174 7.97467 6.0429C7.92274 5.97405 7.89512 5.88993 7.89613 5.8037C7.89714 5.71748 7.92672 5.63402 7.98024 5.56641L8.66433 4.71973C8.69967 4.67559 8.74416 4.63963 8.79474 4.61435C8.84531 4.58906 8.90078 4.57504 8.9573 4.57325H8.96608C9.02857 4.57173 9.0905 4.58531 9.1466 4.61286C9.20271 4.6404 9.25134 4.68109 9.28835 4.73145L9.93435 5.61036C9.98478 5.67856 10.0116 5.76135 10.0107 5.84617C10.0098 5.93099 9.98123 6.0132 9.92936 6.08031C9.87749 6.14743 9.80514 6.19578 9.72329 6.21804C9.64144 6.24029 9.55456 6.23523 9.47585 6.20362L9.46267 8.08302ZM12.6853 14.5195C12.7246 14.6173 12.7274 14.7258 12.6933 14.8255C12.6592 14.9251 12.5905 15.0092 12.4997 15.0624C12.4088 15.1156 12.3019 15.1345 12.1983 15.1155C12.0947 15.0965 12.0014 15.041 11.9353 14.959L11.6116 14.3994C11.5724 14.3017 11.5695 14.1931 11.6036 14.0935C11.6377 13.9939 11.7064 13.9098 11.7972 13.8565C11.8881 13.8033 11.995 13.7845 12.0986 13.8034C12.2022 13.8224 12.2955 13.878 12.3616 13.96L12.6853 14.521V14.5195ZM5.31276 3.47901C5.27821 3.38201 5.27882 3.27595 5.31449 3.17935C5.35015 3.08275 5.41861 3.00174 5.50791 2.95046C5.59721 2.89918 5.70168 2.88089 5.80309 2.89878C5.9045 2.91667 5.9964 2.96961 6.06276 3.04835L6.38649 3.60792C6.42796 3.65711 6.45811 3.71481 6.47483 3.77694C6.49155 3.83907 6.49442 3.90411 6.48324 3.96747C6.47206 4.03083 6.44711 4.09097 6.41014 4.14362C6.37317 4.19628 6.32509 4.24018 6.2693 4.27222C6.21351 4.30426 6.15136 4.32365 6.08724 4.32904C6.02313 4.33442 5.95862 4.32566 5.89826 4.30338C5.83791 4.28109 5.78318 4.24583 5.73795 4.20007C5.69272 4.15432 5.65808 4.09919 5.63649 4.03858L5.31276 3.47901ZM14.9514 11.937C15.012 11.9586 15.0672 11.9932 15.1129 12.0385C15.1587 12.0837 15.1939 12.1384 15.2162 12.1988C15.2385 12.2591 15.2473 12.3237 15.2419 12.3878C15.2365 12.4519 15.2171 12.514 15.1851 12.5698C15.153 12.6256 15.1091 12.6737 15.0565 12.7107C15.0038 12.7476 14.9437 12.7726 14.8803 12.7838C14.817 12.7949 14.7519 12.7921 14.6898 12.7754C14.6277 12.7586 14.57 12.7285 14.5208 12.687L13.9612 12.3633C13.8825 12.2969 13.8295 12.205 13.8116 12.1036C13.7937 12.0022 13.812 11.8977 13.8633 11.8084C13.9146 11.7191 13.9956 11.6507 14.0922 11.615C14.1888 11.5793 14.2949 11.5787 14.3919 11.6133L14.9514 11.937ZM3.04665 6.063C2.988 6.03945 2.93512 6.00354 2.89162 5.9577C2.84811 5.91186 2.81501 5.85717 2.79456 5.79738C2.77411 5.73758 2.76679 5.67408 2.77312 5.6112C2.77944 5.54832 2.79926 5.48754 2.83121 5.43301C2.86316 5.37849 2.90649 5.33149 2.95825 5.29524C3.01002 5.25898 3.06899 5.23431 3.13115 5.22292C3.19331 5.21153 3.2572 5.21368 3.31846 5.22922C3.37971 5.24477 3.43689 5.27334 3.4861 5.313L4.04714 5.63673C4.12913 5.7028 4.18467 5.79612 4.20366 5.89969C4.22264 6.00327 4.2038 6.11022 4.15056 6.20107C4.09733 6.29192 4.01324 6.36064 3.9136 6.39472C3.81397 6.42879 3.70541 6.42596 3.60769 6.38673L3.04665 6.063ZM15.6238 8.56495C15.7275 8.58093 15.8221 8.63351 15.8904 8.71318C15.9588 8.79284 15.9963 8.89432 15.9963 8.99928C15.9963 9.10423 15.9588 9.20571 15.8904 9.28537C15.8221 9.36504 15.7275 9.41762 15.6238 9.4336H14.9763C14.8726 9.41762 14.778 9.36504 14.7097 9.28537C14.6414 9.20571 14.6038 9.10423 14.6038 8.99928C14.6038 8.89432 14.6414 8.79284 14.7097 8.71318C14.778 8.63351 14.8726 8.58093 14.9763 8.56495H15.6238ZM2.37575 9.43507C2.31312 9.44472 2.24915 9.44071 2.18821 9.42332C2.12727 9.40593 2.07082 9.37556 2.02272 9.33431C1.97462 9.29305 1.93601 9.24188 1.90954 9.1843C1.88307 9.12673 1.86937 9.06411 1.86937 9.00074C1.86937 8.93737 1.88307 8.87475 1.90954 8.81718C1.93601 8.7596 1.97462 8.70843 2.02272 8.66717C2.07082 8.62592 2.12727 8.59555 2.18821 8.57816C2.24915 8.56077 2.31312 8.55676 2.37575 8.56641H3.02321C3.12694 8.5824 3.22152 8.63498 3.28985 8.71464C3.35817 8.7943 3.39573 8.89579 3.39573 9.00074C3.39573 9.10569 3.35817 9.20718 3.28985 9.28684C3.22152 9.3665 3.12694 9.41908 3.02321 9.43507H2.37575ZM14.5208 5.313C14.6178 5.27844 14.7238 5.27905 14.8204 5.31472C14.917 5.35038 14.998 5.41884 15.0493 5.50814C15.1006 5.59744 15.1189 5.70191 15.101 5.80332C15.0831 5.90473 15.0302 5.99663 14.9514 6.063L14.3919 6.38673C14.2949 6.42128 14.1888 6.42067 14.0922 6.385C13.9956 6.34934 13.9146 6.28088 13.8633 6.19158C13.812 6.10228 13.7937 5.99781 13.8116 5.8964C13.8295 5.79499 13.8825 5.70309 13.9612 5.63673L14.5208 5.313ZM3.47878 12.687C3.42958 12.7285 3.37188 12.7586 3.30975 12.7754C3.24763 12.7921 3.18258 12.7949 3.11922 12.7838C3.05586 12.7726 2.99573 12.7476 2.94307 12.7107C2.89042 12.6737 2.84652 12.6256 2.81448 12.5698C2.78244 12.514 2.76304 12.4519 2.75766 12.3878C2.75228 12.3237 2.76104 12.2591 2.78332 12.1988C2.8056 12.1384 2.84087 12.0837 2.88662 12.0385C2.93238 11.9932 2.98751 11.9586 3.04812 11.937L3.60769 11.6133C3.70469 11.5787 3.81075 11.5793 3.90735 11.615C4.00395 11.6507 4.08496 11.7191 4.13624 11.8084C4.18751 11.8977 4.2058 12.0022 4.18791 12.1036C4.17002 12.205 4.11709 12.2969 4.03835 12.3633L3.47878 12.687ZM11.9368 3.04835C12.0031 2.96961 12.0951 2.91667 12.1965 2.89878C12.2979 2.88089 12.4023 2.89918 12.4916 2.95046C12.5809 3.00174 12.6494 3.08275 12.6851 3.17935C12.7207 3.27595 12.7213 3.38201 12.6868 3.47901L12.3631 4.03858C12.3415 4.09919 12.3068 4.15432 12.2616 4.20007C12.2164 4.24583 12.1616 4.28109 12.1013 4.30338C12.0409 4.32566 11.9764 4.33442 11.9123 4.32904C11.8482 4.32365 11.786 4.30426 11.7302 4.27222C11.6745 4.24018 11.6264 4.19628 11.5894 4.14362C11.5524 4.09097 11.5275 4.03083 11.5163 3.96747C11.5051 3.90411 11.508 3.83907 11.5247 3.77694C11.5414 3.71481 11.5716 3.65711 11.6131 3.60792L11.9368 3.04835ZM6.06276 14.9531C5.99669 15.0351 5.90337 15.0907 5.7998 15.1096C5.69622 15.1286 5.58927 15.1098 5.49842 15.0566C5.40756 15.0033 5.33885 14.9192 5.30477 14.8196C5.2707 14.72 5.27353 14.6114 5.31276 14.5137L5.63649 13.9526C5.70257 13.8707 5.79588 13.8151 5.89946 13.7961C6.00304 13.7771 6.10999 13.796 6.20084 13.8492C6.29169 13.9025 6.36041 13.9865 6.39448 14.0862C6.42856 14.1858 6.42572 14.2944 6.38649 14.3921L6.06276 14.9517V14.9531ZM8.56472 2.37598C8.5807 2.27226 8.63328 2.17768 8.71294 2.10935C8.79261 2.04102 8.89409 2.00346 8.99904 2.00346C9.10399 2.00346 9.20548 2.04102 9.28514 2.10935C9.36481 2.17768 9.41738 2.27226 9.43337 2.37598V3.02344C9.41738 3.12717 9.36481 3.22175 9.28514 3.29008C9.20548 3.35841 9.10399 3.39597 8.99904 3.39597C8.89409 3.39597 8.79261 3.35841 8.71294 3.29008C8.63328 3.22175 8.5807 3.12717 8.56472 3.02344V2.37598ZM9.43337 15.624C9.44302 15.6867 9.43901 15.7506 9.42162 15.8116C9.40423 15.8725 9.37386 15.929 9.33261 15.9771C9.29135 16.0252 9.24018 16.0638 9.18261 16.0902C9.12503 16.1167 9.06241 16.1304 8.99904 16.1304C8.93567 16.1304 8.87305 16.1167 8.81548 16.0902C8.7579 16.0638 8.70673 16.0252 8.66548 15.9771C8.62422 15.929 8.59386 15.8725 8.57646 15.8116C8.55907 15.7506 8.55507 15.6867 8.56472 15.624V14.9766C8.5807 14.8728 8.63328 14.7783 8.71294 14.7099C8.79261 14.6416 8.89409 14.604 8.99904 14.604C9.10399 14.604 9.20548 14.6416 9.28514 14.7099C9.36481 14.7783 9.41738 14.8728 9.43337 14.9766V15.624ZM14.6482 3.35303C13.3409 2.04802 11.6215 1.23665 9.78303 1.05715C7.94455 0.877644 6.10071 1.34112 4.56563 2.3686C3.03055 3.39609 1.8992 4.92403 1.36431 6.69211C0.829431 8.46019 0.92411 10.359 1.63222 12.0651C2.34033 13.7712 3.61806 15.179 5.24774 16.0487C6.87742 16.9184 8.75822 17.1962 10.5697 16.8347C12.3812 16.4732 14.0113 15.4948 15.1824 14.0662C16.3534 12.6376 16.9929 10.8472 16.992 9.00001C16.9925 7.95076 16.7858 6.91175 16.3835 5.94266C15.9813 4.97357 15.3916 4.09351 14.6482 3.35303Z" fill="black" fill-opacity="0.8"/>
</g>
<defs>
<clipPath id="clip0_311_177">
<rect width="18" height="18" fill="white"/>
</clipPath>
</defs>
</svg>
