<svg width="23" height="23" viewBox="0 0 23 23" fill="none" xmlns="http://www.w3.org/2000/svg">
<path d="M15.2035 11.5187L22.5277 4.19067C23.1424 3.57594 23.1424 2.5751 22.5277 1.95287L21.0359 0.461019C20.4211 -0.153714 19.4204 -0.153714 18.7981 0.461019L11.4738 7.78911L4.1907 0.505999C3.57597 -0.108733 2.57513 -0.108733 1.95295 0.505999L0.46105 1.99785C-0.153683 2.61258 -0.153683 3.61342 0.46105 4.23565L7.74416 11.5187L0.468595 18.7906C-0.146137 19.4053 -0.146137 20.4061 0.468595 21.0284L1.96045 22.5202C2.57518 23.1349 3.57602 23.1349 4.1982 22.5202L11.4738 15.2484L18.7644 22.539C19.3791 23.1537 20.38 23.1537 21.0021 22.539L22.494 21.0471C23.1088 20.4324 23.1088 19.4315 22.494 18.8093L15.2035 11.5187Z" fill="white"/>
</svg>
