<svg width="20" height="26" viewBox="0 0 20 26" fill="none" xmlns="http://www.w3.org/2000/svg">
<path d="M16.5916 18.1304L9.71908 25.6403L2.84661 18.1304C1.48739 16.645 0.561748 14.7526 0.186745 12.6925C-0.188258 10.6323 0.00421901 8.49685 0.739837 6.55621C1.47545 4.61556 2.72117 2.95687 4.31946 1.78988C5.91776 0.622881 7.79684 0 9.71908 0C11.6413 0 13.5204 0.622881 15.1187 1.78988C16.717 2.95687 17.9627 4.61556 18.6983 6.55621C19.4339 8.49685 19.6264 10.6323 19.2514 12.6925C18.8764 14.7526 17.9508 16.645 16.5916 18.1304ZM9.71908 15.3407C10.8647 15.3407 11.9634 14.8434 12.7735 13.9582C13.5836 13.0729 14.0387 11.8723 14.0387 10.6205C14.0387 9.36856 13.5836 8.16795 12.7735 7.28274C11.9634 6.39752 10.8647 5.90021 9.71908 5.90021C8.57346 5.90021 7.47475 6.39752 6.66467 7.28274C5.85459 8.16795 5.39949 9.36856 5.39949 10.6205C5.39949 11.8723 5.85459 13.0729 6.66467 13.9582C7.47475 14.8434 8.57346 15.3407 9.71908 15.3407ZM9.71908 12.9806C9.14627 12.9806 8.59692 12.7319 8.19188 12.2893C7.78684 11.8467 7.55929 11.2464 7.55929 10.6205C7.55929 9.99451 7.78684 9.3942 8.19188 8.95159C8.59692 8.50899 9.14627 8.26033 9.71908 8.26033C10.2919 8.26033 10.8412 8.50899 11.2463 8.95159C11.6513 9.3942 11.8789 9.99451 11.8789 10.6205C11.8789 11.2464 11.6513 11.8467 11.2463 12.2893C10.8412 12.7319 10.2919 12.9806 9.71908 12.9806Z" fill="#031D4E"/>
</svg>
