<svg width="21" height="24" viewBox="0 0 21 24" fill="none" xmlns="http://www.w3.org/2000/svg">
<path d="M10.3906 0C12.6523 0 14.4958 1.63734 14.5803 3.6863L14.5833 3.83333H19.8698C20.3732 3.83333 20.7812 4.20643 20.7812 4.66667C20.7812 5.09814 20.4226 5.45302 19.963 5.4957L19.8698 5.5H19.0743L17.8324 20.5466C17.7104 22.0244 16.3632 23.1667 14.7422 23.1667H6.03904C4.418 23.1667 3.07087 22.0244 2.94887 20.5466L1.70625 5.5H0.911458C0.439535 5.5 0.0513815 5.17208 0.00470569 4.75187L0 4.66667C0 4.23519 0.358659 3.88031 0.818267 3.83764L0.911458 3.83333H6.19792C6.19792 1.71624 8.07506 0 10.3906 0ZM17.2463 5.5H3.53492L4.76662 20.4211C4.81685 21.0297 5.37156 21.5 6.03904 21.5H14.7422C15.4097 21.5 15.9644 21.0297 16.0146 20.4211L17.2463 5.5ZM12.7604 9C13.2323 9 13.6205 9.32792 13.6672 9.74813L13.6719 9.83333V17.1667C13.6719 17.6269 13.2638 18 12.7604 18C12.2885 18 11.9003 17.6721 11.8537 17.2519L11.849 17.1667V9.83333C11.849 9.37309 12.257 9 12.7604 9ZM8.02083 9C8.49276 9 8.88091 9.32792 8.92758 9.74813L8.93229 9.83333V17.1667C8.93229 17.6269 8.52422 18 8.02083 18C7.54891 18 7.16076 17.6721 7.11408 17.2519L7.10937 17.1667V9.83333C7.10937 9.37309 7.51745 9 8.02083 9ZM10.3906 1.66667C9.12696 1.66667 8.0943 2.57097 8.02458 3.71038L8.02083 3.83333H12.7604C12.7604 2.63672 11.6994 1.66667 10.3906 1.66667Z" fill="#FF0000"/>
</svg>
