<svg width="65" height="65" viewBox="0 0 65 65" fill="none" xmlns="http://www.w3.org/2000/svg">
<path d="M32.2346 15.7154V32.2346L40.4942 27.2788M61.9692 32.2346C61.9692 48.6567 48.6567 61.9692 32.2346 61.9692C15.8127 61.9692 2.5 48.6567 2.5 32.2346C2.5 15.8127 15.8127 2.5 32.2346 2.5C48.6567 2.5 61.9692 15.8127 61.9692 32.2346Z" fill="white"/>
<path d="M32.2346 15.7154V32.2346L40.4942 27.2788M61.9692 32.2346C61.9692 48.6567 48.6567 61.9692 32.2346 61.9692C15.8127 61.9692 2.5 48.6567 2.5 32.2346C2.5 15.8127 15.8127 2.5 32.2346 2.5C48.6567 2.5 61.9692 15.8127 61.9692 32.2346Z" stroke="#FF0000" stroke-width="5" stroke-linecap="round" stroke-linejoin="round"/>
</svg>
