<svg width="23" height="23" viewBox="0 0 23 23" fill="none" xmlns="http://www.w3.org/2000/svg">
<path d="M11.1627 8.57128C12.7039 8.57128 13.9533 9.85045 13.9533 11.4284C13.9533 13.0063 12.7039 14.2855 11.1627 14.2855C9.62143 14.2855 8.37201 13.0063 8.37201 11.4284C8.37201 9.85045 9.62143 8.57128 11.1627 8.57128Z" fill="white"/>
<path fill-rule="evenodd" clip-rule="evenodd" d="M2.90642 12.857C3.49458 16.4462 6.26153 19.2791 9.76731 19.8812V22.8568H12.558V19.8812C16.0637 19.2791 18.8307 16.4462 19.4188 12.857H22.3253V9.99987H19.4188C18.8307 6.41063 16.0637 3.57781 12.558 2.97568V0H9.76731V2.97568C6.26153 3.57781 3.49458 6.41063 2.90642 9.99987H0V12.857H2.90642ZM5.58132 11.4284C5.58132 14.5843 8.08016 17.1426 11.1626 17.1426C14.2451 17.1426 16.744 14.5843 16.744 11.4284C16.744 8.2726 14.2451 5.71421 11.1626 5.71421C8.08016 5.71421 5.58132 8.2726 5.58132 11.4284Z" fill="white"/>
</svg>
