<svg width="27" height="26" viewBox="0 0 27 26" fill="none" xmlns="http://www.w3.org/2000/svg">
<g clip-path="url(#clip0_364_5)">
<path d="M6.86845 9.57077L0.966553 15.2543L11.159 25.0689L17.0609 19.3854L6.86845 9.57077Z" fill="#D1D3D4"/>
<path d="M11.1587 25.0689L0.966553 15.2543L15.8416 0.930664L25.8389 1.11681L26.0322 10.7444L11.1587 25.0689Z" stroke="white" stroke-width="2" stroke-linecap="round" stroke-linejoin="round"/>
<path d="M21.1769 8.18837C20.8923 8.46243 20.5297 8.64906 20.135 8.72469C19.7403 8.80031 19.3311 8.76151 18.9593 8.61321C18.5875 8.46491 18.2697 8.21375 18.0461 7.89151C17.8225 7.56927 17.7031 7.19042 17.7031 6.80287C17.7031 6.41531 17.8225 6.03646 18.0461 5.71422C18.2697 5.39198 18.5875 5.14084 18.9593 4.99253C19.3311 4.84423 19.7403 4.80542 20.135 4.88104C20.5297 4.95667 20.8923 5.1433 21.1769 5.41736C21.5583 5.78489 21.7726 6.28325 21.7726 6.80287C21.7726 7.32248 21.5583 7.82084 21.1769 8.18837Z" stroke="white" stroke-width="2" stroke-linecap="round" stroke-linejoin="round"/>
</g>
<defs>
<clipPath id="clip0_364_5">
<rect width="27" height="26" fill="white"/>
</clipPath>
</defs>
</svg>
