<svg width="32" height="32" viewBox="0 0 32 32" fill="none" xmlns="http://www.w3.org/2000/svg">
<path d="M26.887 4.61308C23.9123 1.63826 19.9571 0 15.75 0C11.5431 0 7.5879 1.63826 4.61301 4.61308C1.63826 7.58777 0 11.543 0 15.75C0 19.9569 1.63826 23.9122 4.61301 26.8869C7.5879 29.8617 11.5431 31.5 15.75 31.5C19.9571 31.5 23.9123 29.8617 26.887 26.8869C29.8617 23.9121 31.5 19.9569 31.5 15.75C31.5 11.543 29.8617 7.58777 26.887 4.61308ZM15.75 2.70964C22.3411 2.70964 27.8049 7.62519 28.6701 13.9827L19.6901 11.553C18.66 10.5856 17.2747 9.99187 15.75 9.99187C14.2253 9.99187 12.84 10.5855 11.8099 11.553L2.82992 13.9827C3.69514 7.62519 9.15898 2.70964 15.75 2.70964ZM2.82992 17.5173L11.4512 19.913L13.0621 28.5111C7.72136 27.3875 3.57429 22.9861 2.82992 17.5173ZM15.75 18.7758C14.079 18.7758 12.7242 17.4211 12.7242 15.75C12.7242 14.0789 14.079 12.7242 15.75 12.7242C17.421 12.7242 18.7757 14.0789 18.7757 15.75C18.7757 17.4211 17.421 18.7758 15.75 18.7758ZM18.438 28.5111L20.0489 19.913L28.67 17.5173C27.9258 22.9861 23.7786 27.3875 18.438 28.5111Z" fill="white"/>
</svg>
