<svg width="21" height="19" viewBox="0 0 21 19" fill="none" xmlns="http://www.w3.org/2000/svg">
<path d="M13.7249 3.30524L16.6043 5.9167L13.7249 3.30524ZM11.1801 17.6156H19.3242H11.1801ZM1 17.616L1.0483 17.3094C1.21924 16.2241 1.30471 15.6815 1.49912 15.1749C1.67163 14.7254 1.90729 14.298 2.2003 13.9031C2.53049 13.458 2.95783 13.0704 3.8125 12.2953L15.6703 1.54085C16.4654 0.819722 17.7545 0.819713 18.5497 1.54085C19.3448 2.26198 19.3448 3.43117 18.5497 4.15231L6.4743 15.1041C5.69893 15.8074 5.31125 16.1589 4.86967 16.4386C4.47771 16.6868 4.05498 16.8924 3.61016 17.0512C3.10903 17.2301 2.57156 17.3284 1.49672 17.5251L1 17.616Z" fill="white"/>
<path d="M13.7249 3.30524L16.6043 5.9167M11.1801 17.6156H19.3242M1 17.616L1.0483 17.3094C1.21924 16.2241 1.30471 15.6815 1.49912 15.1749C1.67163 14.7254 1.90729 14.298 2.2003 13.9031C2.53049 13.458 2.95783 13.0704 3.8125 12.2953L15.6703 1.54085C16.4654 0.819722 17.7545 0.819713 18.5497 1.54085C19.3448 2.26198 19.3448 3.43117 18.5497 4.15231L6.4743 15.1041C5.69893 15.8074 5.31125 16.1589 4.86967 16.4386C4.47771 16.6868 4.05498 16.8924 3.61016 17.0512C3.10903 17.2301 2.57156 17.3284 1.49672 17.5251L1 17.616Z" stroke="black" stroke-width="2" stroke-linecap="round" stroke-linejoin="round"/>
</svg>
