<svg width="26" height="26" viewBox="0 0 26 26" fill="none" xmlns="http://www.w3.org/2000/svg">
<circle cx="12.7591" cy="12.7591" r="12.7591" fill="black"/>
<path d="M12.3339 14.7301V14.4441C12.3339 14.2621 12.3036 14.1061 12.2429 13.9761C12.1909 13.8461 12.0913 13.7118 11.9439 13.5731C11.8053 13.4344 11.5973 13.2698 11.3199 13.0791C10.9819 12.8278 10.7003 12.5851 10.4749 12.3511C10.2496 12.1171 10.0806 11.8658 9.96794 11.5971C9.85528 11.3198 9.79894 11.0034 9.79894 10.6481C9.79894 9.94609 10.0503 9.38709 10.5529 8.97109C11.0556 8.55509 11.7619 8.34709 12.6719 8.34709C13.2613 8.34709 13.8029 8.42076 14.2969 8.56809C14.7996 8.71543 15.2633 8.90609 15.6879 9.14009L14.9859 10.5701C14.6133 10.3708 14.2493 10.2148 13.8939 10.1021C13.5386 9.98943 13.1789 9.93309 12.8149 9.93309C12.4596 9.93309 12.1779 10.0111 11.9699 10.1671C11.7706 10.3144 11.6709 10.5224 11.6709 10.7911C11.6709 10.9558 11.6969 11.1074 11.7489 11.2461C11.8096 11.3848 11.9179 11.5321 12.0739 11.6881C12.2299 11.8441 12.4596 12.0304 12.7629 12.2471C13.0576 12.4551 13.2873 12.6631 13.4519 12.8711C13.6166 13.0704 13.7293 13.2828 13.7899 13.5081C13.8593 13.7248 13.8939 13.9761 13.8939 14.2621V14.7301H12.3339ZM13.0359 17.9281C12.7326 17.9281 12.4726 17.8414 12.2559 17.6681C12.0393 17.4948 11.9309 17.2174 11.9309 16.8361C11.9309 16.4374 12.0393 16.1558 12.2559 15.9911C12.4726 15.8264 12.7326 15.7441 13.0359 15.7441C13.3566 15.7441 13.6253 15.8264 13.8419 15.9911C14.0673 16.1558 14.1799 16.4374 14.1799 16.8361C14.1799 17.2174 14.0673 17.4948 13.8419 17.6681C13.6253 17.8414 13.3566 17.9281 13.0359 17.9281Z" fill="white"/>
</svg>
