<svg width="24" height="25" viewBox="0 0 24 25" fill="none" xmlns="http://www.w3.org/2000/svg">
<path d="M11.655 24.1666C5.215 24.1666 0 18.7533 0 12.0833C0 5.41329 5.215 -3.8147e-05 11.655 -3.8147e-05C18.1067 -3.8147e-05 23.3333 5.41329 23.3333 12.0833C23.3333 18.7533 18.1067 24.1666 11.655 24.1666ZM19.74 16.9166H16.2983C15.925 18.427 15.3883 19.877 14.6883 21.2183C16.835 20.457 18.62 18.9104 19.74 16.9166ZM11.6667 21.7016C12.635 20.2516 13.3933 18.6445 13.895 16.9166H9.43833C9.94 18.6445 10.6983 20.2516 11.6667 21.7016ZM2.63667 9.66663C2.45 10.44 2.33333 11.2495 2.33333 12.0833C2.33333 12.917 2.45 13.7266 2.63667 14.5H6.58C6.48667 13.7025 6.41667 12.905 6.41667 12.0833C6.41667 11.2616 6.48667 10.4641 6.58 9.66663H2.63667ZM3.59333 7.24996H7.035C7.40833 5.73954 7.945 4.28955 8.645 2.9483C6.49833 3.70955 4.71333 5.24413 3.59333 7.24996ZM7.035 16.9166H3.59333C4.71333 18.9225 6.49833 20.457 8.645 21.2183C7.945 19.877 7.40833 18.427 7.035 16.9166ZM11.6667 2.46496C10.6983 3.91496 9.94 5.52204 9.43833 7.24996H13.895C13.3933 5.52204 12.635 3.91496 11.6667 2.46496ZM14.3967 9.66663H8.93667C8.83167 10.4641 8.75 11.2616 8.75 12.0833C8.75 12.905 8.83167 13.7145 8.93667 14.5H14.3967C14.5017 13.7145 14.5833 12.905 14.5833 12.0833C14.5833 11.2616 14.5017 10.4641 14.3967 9.66663ZM14.6883 2.9483C15.3883 4.28955 15.925 5.73954 16.2983 7.24996H19.74C18.62 5.25621 16.835 3.70955 14.6883 2.9483ZM16.7533 9.66663C16.8467 10.4641 16.9167 11.2616 16.9167 12.0833C16.9167 12.905 16.8467 13.7025 16.7533 14.5H20.6967C20.8833 13.7266 21 12.917 21 12.0833C21 11.2495 20.8833 10.44 20.6967 9.66663H16.7533Z" fill="white"/>
</svg>
