<svg width="45" height="44" viewBox="0 0 45 44" fill="none" xmlns="http://www.w3.org/2000/svg">
<ellipse cx="22.5" cy="22" rx="22.5" ry="22" fill="#FFB100"/>
<g clip-path="url(#clip0_11_27)">
<path d="M22.5 18C24.6401 18 26.375 19.7909 26.375 22C26.375 24.2091 24.6401 26 22.5 26C20.3599 26 18.625 24.2091 18.625 22C18.625 19.7909 20.3599 18 22.5 18Z" fill="white"/>
<path fill-rule="evenodd" clip-rule="evenodd" d="M11.0357 24C11.8524 29.025 15.6945 32.991 20.5625 33.8341V38H24.4375V33.8341C29.3055 32.991 33.1475 29.025 33.9642 24H38V20H33.9642C33.1475 14.975 29.3055 11.009 24.4375 10.166V6H20.5625V10.166C15.6945 11.009 11.8524 14.975 11.0357 20H7V24H11.0357ZM14.75 22C14.75 26.4183 18.2198 30 22.5 30C26.7801 30 30.25 26.4183 30.25 22C30.25 17.5818 26.7801 14 22.5 14C18.2198 14 14.75 17.5818 14.75 22Z" fill="white"/>
</g>
<defs>
<clipPath id="clip0_11_27">
<rect width="31" height="32" fill="white" transform="matrix(1 0 0 -1 7 38)"/>
</clipPath>
</defs>
</svg>
