<svg width="19" height="25" viewBox="0 0 19 25" fill="none" xmlns="http://www.w3.org/2000/svg">
<path d="M15.6793 17.1335L9.18468 24.2304L2.69009 17.1335C1.4056 15.7298 0.53086 13.9415 0.176477 11.9946C-0.177907 10.0477 0.00398701 8.02965 0.699156 6.19571C1.39433 4.36178 2.57155 2.79429 4.08196 1.69146C5.59237 0.588631 7.36813 0 9.18468 0C11.0012 0 12.777 0.588631 14.2874 1.69146C15.7978 2.79429 16.975 4.36178 17.6702 6.19571C18.3654 8.02965 18.5473 10.0477 18.1929 11.9946C17.8385 13.9415 16.9638 15.7298 15.6793 17.1335ZM9.18468 14.4972C10.2673 14.4972 11.3056 14.0272 12.0711 13.1907C12.8367 12.3541 13.2668 11.2195 13.2668 10.0365C13.2668 8.85343 12.8367 7.71884 12.0711 6.88229C11.3056 6.04575 10.2673 5.57578 9.18468 5.57578C8.10204 5.57578 7.06375 6.04575 6.29821 6.88229C5.53267 7.71884 5.1026 8.85343 5.1026 10.0365C5.1026 11.2195 5.53267 12.3541 6.29821 13.1907C7.06375 14.0272 8.10204 14.4972 9.18468 14.4972ZM9.18468 12.2668C8.64336 12.2668 8.12421 12.0318 7.74145 11.6136C7.35868 11.1953 7.14364 10.628 7.14364 10.0365C7.14364 9.44496 7.35868 8.87766 7.74145 8.45939C8.12421 8.04112 8.64336 7.80613 9.18468 7.80613C9.72599 7.80613 10.2451 8.04112 10.6279 8.45939C11.0107 8.87766 11.2257 9.44496 11.2257 10.0365C11.2257 10.628 11.0107 11.1953 10.6279 11.6136C10.2451 12.0318 9.72599 12.2668 9.18468 12.2668Z" fill="#A1FF59"/>
</svg>
