<svg width="20" height="18" viewBox="0 0 20 18" fill="none" xmlns="http://www.w3.org/2000/svg">
<path d="M4.81433 5.76791H14.3502M4.81433 9.58224H14.3502M18.1645 16.2573L14.9945 14.6723C14.7542 14.5521 14.634 14.4921 14.5081 14.4497C14.3963 14.4121 14.2812 14.385 14.1644 14.3686C14.0328 14.3502 13.8984 14.3502 13.6298 14.3502H4.05146C2.98335 14.3502 2.44929 14.3502 2.04133 14.1423C1.68247 13.9595 1.39071 13.6677 1.20787 13.3088C1 12.9009 1 12.3668 1 11.2987V4.05146C1 2.98335 1 2.44929 1.20787 2.04133C1.39071 1.68247 1.68247 1.39071 2.04133 1.20787C2.44929 1 2.98336 1 4.05146 1H15.113C16.1811 1 16.7152 1 17.1232 1.20787C17.482 1.39071 17.7738 1.68247 17.9566 2.04133C18.1645 2.44929 18.1645 2.98336 18.1645 4.05146V16.2573Z" stroke="white" stroke-width="2" stroke-linecap="round" stroke-linejoin="round"/>
</svg>
