<svg width="26" height="27" viewBox="0 0 26 27" fill="none" xmlns="http://www.w3.org/2000/svg">
<path d="M18.2001 23.24C17.7241 23.24 17.3601 23.604 17.3601 24.08C17.3601 24.556 17.7241 24.92 18.2001 24.92C18.6761 24.92 19.0401 24.556 19.0401 24.08C19.0401 23.604 18.6761 23.24 18.2001 23.24ZM18.2001 24.36C18.0321 24.36 17.9201 24.248 17.9201 24.08C17.9201 23.912 18.0321 23.8 18.2001 23.8C18.3681 23.8 18.4801 23.912 18.4801 24.08C18.4801 24.248 18.3681 24.36 18.2001 24.36Z" fill="white"/>
<path d="M8.96012 23.24C8.48412 23.24 8.12012 23.604 8.12012 24.08C8.12012 24.556 8.48412 24.92 8.96012 24.92C9.43612 24.92 9.80012 24.556 9.80012 24.08C9.80012 23.604 9.43612 23.24 8.96012 23.24ZM8.96012 24.36C8.79212 24.36 8.68012 24.248 8.68012 24.08C8.68012 23.912 8.79212 23.8 8.96012 23.8C9.12812 23.8 9.24012 23.912 9.24012 24.08C9.24012 24.248 9.12812 24.36 8.96012 24.36Z" fill="white"/>
<path d="M14.28 14.84H11.368C10.892 14.84 10.472 15.176 10.36 15.652L9.52002 19.264C9.49202 19.348 9.52002 19.432 9.57602 19.488C9.63202 19.544 9.71602 19.6 9.80002 19.6H14.28C14.448 19.6 14.56 19.488 14.56 19.32V15.12C14.56 14.952 14.448 14.84 14.28 14.84ZM14 19.04H10.164L10.92 15.764C10.976 15.54 11.144 15.4 11.368 15.4H14V19.04Z" fill="white"/>
<path d="M17.9199 14.84H15.6799C15.5119 14.84 15.3999 14.952 15.3999 15.12V19.32C15.3999 19.488 15.5119 19.6 15.6799 19.6H18.9839C19.0679 19.6 19.1239 19.572 19.1799 19.516C19.2359 19.46 19.2639 19.376 19.2639 19.292L18.9559 15.764C18.8999 15.232 18.4519 14.84 17.9199 14.84ZM15.9599 19.04V15.4H17.9199C18.1719 15.4 18.3679 15.596 18.3959 15.82L18.6759 19.04H15.9599Z" fill="white"/>
<path d="M13.7199 13.16H15.9599C16.1279 13.16 16.2399 13.048 16.2399 12.88C16.2399 12.712 16.1279 12.6 15.9599 12.6H13.7199C13.5519 12.6 13.4399 12.712 13.4399 12.88C13.4399 13.048 13.5519 13.16 13.7199 13.16Z" fill="white"/>
<path d="M25.76 12.88C25.76 9.996 24.808 7.308 23.184 5.152C23.184 5.124 23.156 5.124 23.156 5.096C20.804 2.016 17.08 0 12.88 0C5.768 0 0 5.768 0 12.88C0 16.744 1.68 20.328 4.648 22.792C4.368 22.932 4.2 23.212 4.2 23.52C4.2 23.996 4.564 24.36 5.04 24.36H6.44H7.028C7.168 25.312 7.98 26.04 8.96 26.04C9.94 26.04 10.752 25.312 10.892 24.36H16.268C16.408 25.312 17.22 26.04 18.2 26.04C19.18 26.04 19.992 25.312 20.132 24.36H20.916C21.28 24.36 21.56 24.08 21.56 23.716V22.4C24.22 19.964 25.76 16.492 25.76 12.88ZM24.556 16.8H22.96C22.484 16.8 22.12 16.436 22.12 15.96C22.12 15.176 21.504 14.56 20.72 14.56H19.88C19.852 14.56 19.852 14.56 19.824 14.56C19.572 14.224 19.18 13.944 18.76 13.804V12.32C18.76 11.844 18.396 11.48 17.92 11.48H14.56V10.92C14.56 10.612 14.812 10.36 15.12 10.36H20.16C20.776 10.36 21.28 9.856 21.28 9.24C21.28 8.624 20.776 8.12 20.16 8.12H19.6C19.292 8.12 19.04 7.868 19.04 7.56V6.16C19.04 5.852 19.292 5.6 19.6 5.6H22.82C24.332 7.644 25.2 10.164 25.2 12.88C25.2 14.224 24.976 15.54 24.556 16.8ZM17.92 12.04C18.088 12.04 18.2 12.152 18.2 12.32V13.72H18.088H11.48V12.32C11.48 12.152 11.592 12.04 11.76 12.04H17.92ZM5.824 2.8C5.852 2.8 5.852 2.8 5.88 2.8H10.5C11.032 2.8 11.48 3.248 11.48 3.78C11.48 4.62 12.18 5.32 13.02 5.32H14.98C15.512 5.32 15.96 5.768 15.96 6.3V6.86C15.96 7.392 15.512 7.84 14.98 7.84H11.06C10.22 7.84 9.52 8.54 9.52 9.38V9.94C9.52 10.472 9.072 10.92 8.54 10.92H0.728C1.26 7.56 3.164 4.676 5.824 2.8ZM2.24 19.04C1.176 17.276 0.616 15.26 0.56 13.16H3.78C4.172 13.16 4.48 13.468 4.48 13.86C4.48 14.56 5.04 15.12 5.74 15.12H7.14C7.532 15.12 7.84 15.428 7.84 15.82V16.1C7.84 16.492 7.532 16.8 7.14 16.8H4.34C3.64 16.8 3.08 17.36 3.08 18.06V18.34C3.08 18.732 2.772 19.04 2.38 19.04H2.24ZM2.548 19.572C3.164 19.488 3.64 18.956 3.64 18.34V18.06C3.64 17.668 3.948 17.36 4.34 17.36H7.14C7.84 17.36 8.4 16.8 8.4 16.1V15.82C8.4 15.12 7.84 14.56 7.14 14.56H5.74C5.348 14.56 5.04 14.252 5.04 13.86C5.04 13.16 4.48 12.6 3.78 12.6H0.56C0.56 12.236 0.588 11.844 0.644 11.48H8.54C9.38 11.48 10.08 10.78 10.08 9.94V9.38C10.08 8.848 10.528 8.4 11.06 8.4H14.98C15.82 8.4 16.52 7.7 16.52 6.86V6.3C16.52 5.46 15.82 4.76 14.98 4.76H13.02C12.488 4.76 12.04 4.312 12.04 3.78C12.04 2.94 11.34 2.24 10.5 2.24H6.692C8.512 1.176 10.612 0.56 12.88 0.56C16.688 0.56 20.104 2.296 22.372 5.04H19.6C18.984 5.04 18.48 5.544 18.48 6.16V7.56C18.48 8.176 18.984 8.68 19.6 8.68H20.16C20.468 8.68 20.72 8.932 20.72 9.24C20.72 9.548 20.468 9.8 20.16 9.8H15.12C14.504 9.8 14 10.304 14 10.92V11.48H11.76C11.284 11.48 10.92 11.844 10.92 12.32V13.748C10.024 13.86 9.296 14.476 9.072 15.372L8.232 18.732C8.176 18.9 8.064 19.04 7.868 19.068L5.544 19.572C5.068 19.684 4.732 20.104 4.732 20.58V22.148C3.892 21.392 3.164 20.524 2.548 19.572ZM6.16 20.02V20.636C6.16 20.692 6.132 20.72 6.076 20.72H5.32V20.58C5.32 20.356 5.46 20.188 5.684 20.132L6.16 20.02ZM5.04 23.8C4.872 23.8 4.76 23.688 4.76 23.52C4.76 23.352 4.872 23.24 5.04 23.24H6.16V23.8H5.04ZM8.96 25.48C8.176 25.48 7.56 24.864 7.56 24.08C7.56 23.296 8.176 22.68 8.96 22.68C9.744 22.68 10.36 23.296 10.36 24.08C10.36 24.864 9.744 25.48 8.96 25.48ZM18.2 25.48C17.416 25.48 16.8 24.864 16.8 24.08C16.8 23.296 17.416 22.68 18.2 22.68C18.984 22.68 19.6 23.296 19.6 24.08C19.6 24.864 18.984 25.48 18.2 25.48ZM20.916 23.8H20.132C19.992 22.848 19.18 22.12 18.2 22.12C17.22 22.12 16.408 22.848 16.268 23.8H10.892C10.752 22.848 9.94 22.12 8.96 22.12C7.98 22.12 7.168 22.848 7.028 23.8H6.72V22.96C6.72 22.792 6.608 22.68 6.44 22.68H5.32V21.28H6.076C6.44 21.28 6.72 21 6.72 20.636V19.88L8.008 19.6C8.4 19.516 8.68 19.236 8.792 18.844L9.632 15.484C9.8 14.756 10.444 14.28 11.2 14.28H18.088C18.9 14.28 19.6 14.896 19.684 15.708L20.048 19.04C20.076 19.292 20.244 19.488 20.468 19.572L20.944 19.768C20.972 19.796 21 19.824 21 19.852V19.88H20.72C20.244 19.88 19.88 20.244 19.88 20.72V21C19.88 21.476 20.244 21.84 20.72 21.84H21V23.716C21 23.744 20.972 23.8 20.916 23.8ZM21 20.44V21.28H20.72C20.552 21.28 20.44 21.168 20.44 21V20.72C20.44 20.552 20.552 20.44 20.72 20.44H21ZM21.56 21.616V19.852C21.56 19.572 21.392 19.348 21.14 19.236L20.664 19.04C20.636 19.04 20.608 18.984 20.608 18.956L20.244 15.624C20.216 15.428 20.188 15.26 20.104 15.092H20.72C21.196 15.092 21.56 15.456 21.56 15.932C21.56 16.716 22.176 17.332 22.96 17.332H24.36C23.744 18.956 22.792 20.412 21.56 21.616Z" fill="white"/>
</svg>
