<svg width="18" height="17" viewBox="0 0 18 17" fill="none" xmlns="http://www.w3.org/2000/svg">
<path d="M5.03601 5.83389H3.49305C2.5329 5.83389 2.05281 5.83389 1.68608 6.01061C1.36349 6.16605 1.10122 6.41409 0.936862 6.71919C0.75 7.06601 0.75 7.52007 0.75 8.42813V12.968C0.75 13.876 0.75 14.33 0.936862 14.6768C1.10122 14.982 1.36349 15.23 1.68608 15.3855C2.05281 15.5622 2.53289 15.5622 3.49305 15.5622H13.4255C14.3856 15.5622 14.8656 15.5622 15.2324 15.3855C15.555 15.23 15.8172 14.982 15.9816 14.6768C16.1685 14.33 16.1685 13.876 16.1685 12.968V8.26599M3.32161 10.6981H3.33018M6.75042 10.698H6.75899M8.05243 8.99115L9.17948 8.78045C9.78766 8.66679 10.0917 8.60996 10.3753 8.5053C10.6269 8.4124 10.8661 8.29169 11.0879 8.1456C11.3377 7.98111 11.5568 7.77382 11.9951 7.35923L16.4084 3.18548C16.9975 2.62833 16.9975 1.72501 16.4084 1.16786C15.8193 0.610712 14.8641 0.610712 14.275 1.16787L9.78629 5.41299C9.3756 5.80144 9.17022 5.99567 9.00435 6.21584C8.85708 6.41131 8.73322 6.62162 8.63507 6.8429C8.52449 7.09219 8.45805 7.35964 8.3251 7.89437L8.05243 8.99115Z" stroke="black" stroke-width="1.5" stroke-linecap="round" stroke-linejoin="round"/>
</svg>
