<svg width="25" height="24" viewBox="0 0 25 24" fill="none" xmlns="http://www.w3.org/2000/svg">
<g clip-path="url(#clip0_311_149)">
<path d="M0.413918 19.8991H4.94989C5.1785 19.8991 5.36376 19.7212 5.36376 19.5018C5.36376 19.2824 5.1785 19.1045 4.94989 19.1045H2.91513C2.73915 18.0801 1.89487 17.2696 0.827782 17.1006V12.4617C1.89487 12.2928 2.73915 11.4823 2.91513 10.4579H18.0311C18.207 11.4823 19.0513 12.2928 20.1184 12.4617V17.1006C19.0513 17.2696 18.2071 18.0801 18.0311 19.1045H6.3726C6.14398 19.1045 5.95873 19.2824 5.95873 19.5018C5.95873 19.7212 6.14398 19.8991 6.3726 19.8991H20.5323C20.7609 19.8991 20.9462 19.7212 20.9462 19.5018V10.0606C20.9462 9.84121 20.7609 9.66332 20.5323 9.66332H9.10765V8.49786H24.1723V12.8583C24.1723 13.2856 23.8101 13.6333 23.365 13.6333H21.912C21.6835 13.6333 21.4982 13.8112 21.4982 14.0306C21.4982 14.25 21.6835 14.4279 21.912 14.4279H23.365C24.2665 14.4278 25 13.7238 25 12.8583V5.67051C25 4.80506 24.2665 4.10095 23.365 4.10095H9.91487C9.01331 4.10095 8.27991 4.80506 8.27991 5.67051V9.66327H0.413918C0.185305 9.66327 4.95911e-05 9.84116 4.95911e-05 10.0606V19.5018C4.95911e-05 19.7212 0.185305 19.8991 0.413918 19.8991ZM20.1185 19.1045H18.8755C19.0278 18.5191 19.5087 18.0575 20.1185 17.9112V19.1045ZM20.1185 10.4579V11.6512C19.5087 11.5049 19.0278 11.0433 18.8755 10.4579H20.1185ZM9.10765 6.96159H20.9105C21.139 6.96159 21.3243 6.7837 21.3243 6.56427C21.3243 6.34485 21.139 6.16696 20.9105 6.16696H9.1076V5.67056C9.1076 5.2432 9.46971 4.89558 9.91477 4.89558H23.365C23.8102 4.89558 24.1723 5.24325 24.1723 5.67056V6.16696H22.4556C22.227 6.16696 22.0417 6.34485 22.0417 6.56427C22.0417 6.7837 22.227 6.96159 22.4556 6.96159H24.1723V7.70324H9.10765V6.96159ZM0.827782 10.4579H2.07075C1.91841 11.0433 1.43755 11.5049 0.827782 11.6512V10.4579ZM0.827782 17.9112C1.43755 18.0575 1.91841 18.5191 2.07075 19.1045H0.827782V17.9112Z" fill="black"/>
<path d="M10.4731 18.4134C12.174 18.4134 13.5578 16.7839 13.5578 14.7811C13.5578 12.7783 12.174 11.1489 10.4731 11.1489C8.77226 11.1489 7.38848 12.7784 7.38848 14.7811C7.38848 16.784 8.77226 18.4134 10.4731 18.4134ZM10.4731 11.9435C11.7176 11.9435 12.73 13.2165 12.73 14.7811C12.73 16.3458 11.7175 17.6188 10.4731 17.6188C9.22861 17.6188 8.21616 16.3458 8.21616 14.7811C8.21616 13.2165 9.22861 11.9435 10.4731 11.9435Z" fill="black"/>
<path d="M2.01142 15.6817H6.10496C6.33358 15.6817 6.51883 15.5038 6.51883 15.2844C6.51883 15.065 6.33358 14.8871 6.10496 14.8871H2.01142C1.7828 14.8871 1.59755 15.065 1.59755 15.2844C1.59755 15.5038 1.7828 15.6817 2.01142 15.6817Z" fill="black"/>
<path d="M15.0409 15.6817H19.1345C19.363 15.6817 19.5483 15.5038 19.5483 15.2844C19.5483 15.065 19.363 14.8871 19.1345 14.8871H15.0409C14.8123 14.8871 14.627 15.065 14.627 15.2844C14.627 15.5038 14.8123 15.6817 15.0409 15.6817Z" fill="black"/>
<path d="M2.01142 14.3278H4.25786C4.48647 14.3278 4.67172 14.1499 4.67172 13.9304C4.67172 13.711 4.48647 13.5331 4.25786 13.5331H2.01142C1.78281 13.5331 1.59756 13.711 1.59756 13.9304C1.59756 14.1499 1.78281 14.3278 2.01142 14.3278Z" fill="black"/>
<path d="M16.888 14.3278H19.1345C19.363 14.3278 19.5483 14.1499 19.5483 13.9304C19.5483 13.711 19.363 13.5331 19.1345 13.5331H16.888C16.6595 13.5331 16.4742 13.711 16.4742 13.9304C16.4742 14.1499 16.6595 14.3278 16.888 14.3278Z" fill="black"/>
<path d="M9.2748 15.1785H11.2577V15.779H9.2748C9.04619 15.779 8.86093 15.9569 8.86093 16.1764C8.86093 16.3958 9.04619 16.5737 9.2748 16.5737H10.0593V16.9736C10.0593 17.193 10.2445 17.3709 10.4731 17.3709C10.7017 17.3709 10.887 17.193 10.887 16.9736V16.5737H11.6715C11.9001 16.5737 12.0854 16.3958 12.0854 16.1764V14.7812C12.0854 14.5617 11.9001 14.3839 11.6715 14.3839H9.68866V13.7833H11.6715C11.9001 13.7833 12.0854 13.6054 12.0854 13.386C12.0854 13.1666 11.9001 12.9887 11.6715 12.9887H10.887V12.5887C10.887 12.3693 10.7017 12.1914 10.4731 12.1914C10.2445 12.1914 10.0593 12.3693 10.0593 12.5887V12.9887H9.2748C9.04619 12.9887 8.86093 13.1666 8.86093 13.386V14.7812C8.86093 15.0006 9.04619 15.1785 9.2748 15.1785Z" fill="black"/>
</g>
<defs>
<clipPath id="clip0_311_149">
<rect width="25" height="24" fill="white" transform="matrix(-1 0 0 -1 25 24)"/>
</clipPath>
</defs>
</svg>
