<svg width="20" height="27" viewBox="0 0 20 27" fill="none" xmlns="http://www.w3.org/2000/svg">
<path d="M9.59766 1C11.2662 1 12.9106 1.56404 14.3232 2.6416C15.738 3.72081 16.8584 5.26973 17.5244 7.10547C18.1904 8.94123 18.3661 10.9671 18.0254 12.9229C17.6846 14.8788 16.846 16.6607 15.6318 18.0469L9.59766 24.9355L3.56348 18.0469C2.34933 16.6607 1.5107 14.8788 1.16992 12.9229C0.829251 10.9671 1.00489 8.94123 1.6709 7.10547C2.33694 5.26973 3.45734 3.72081 4.87207 2.6416C6.28468 1.56404 7.92915 1 9.59766 1ZM9.59766 5.08691C8.1552 5.08691 6.80322 5.74244 5.8291 6.85449C4.85873 7.96234 4.33208 9.43994 4.33203 10.957C4.33203 12.4742 4.85874 13.9517 5.8291 15.0596C6.80323 16.1717 8.15514 16.8271 9.59766 16.8271C11.0402 16.8271 12.3921 16.1717 13.3662 15.0596C14.3366 13.9517 14.8633 12.4742 14.8633 10.957C14.8632 9.43994 14.3366 7.96234 13.3662 6.85449C12.3921 5.74244 11.0401 5.08691 9.59766 5.08691ZM9.59766 9.52246C9.85211 9.52246 10.1277 9.63673 10.3535 9.89453C10.583 10.1565 10.7304 10.5369 10.7305 10.957C10.7305 11.3772 10.583 11.7585 10.3535 12.0205C10.1277 12.2781 9.85204 12.3926 9.59766 12.3926C9.34327 12.3926 9.06757 12.2781 8.8418 12.0205C8.61228 11.7585 8.46484 11.3772 8.46484 10.957C8.46489 10.5369 8.61236 10.1565 8.8418 9.89453C9.06761 9.63673 9.3432 9.52246 9.59766 9.52246Z" stroke="white" stroke-width="2"/>
</svg>
