<svg width="16" height="16" viewBox="0 0 16 16" fill="none" xmlns="http://www.w3.org/2000/svg">
<path d="M14.6458 5.54956V1.00098M11.6134 5.54956V1.00098M12.7505 14.6467C6.26089 14.6467 1 9.38584 1 2.89622C1 2.60343 1.01071 2.31314 1.03176 2.02572C1.05591 1.69586 1.06799 1.53094 1.15442 1.38081C1.22602 1.25646 1.35289 1.13854 1.48213 1.07622C1.63817 1.00098 1.82017 1.00098 2.18416 1.00098H4.31995C4.62604 1.00098 4.77909 1.00098 4.91028 1.05135C5.02617 1.09585 5.12937 1.16813 5.21079 1.26184C5.30297 1.36792 5.35527 1.51175 5.45988 1.79941L6.34391 4.23051C6.46558 4.5652 6.52646 4.73254 6.51615 4.89131C6.50705 5.0313 6.45921 5.16603 6.3781 5.28048C6.28611 5.41029 6.13342 5.5019 5.82804 5.68513L4.79049 6.30766C5.70165 8.31579 7.33019 9.94645 9.33908 10.8562L9.96163 9.81872C10.1449 9.51328 10.2364 9.3606 10.3662 9.26864C10.4807 9.18752 10.6154 9.13969 10.7554 9.13059C10.9142 9.12028 11.0816 9.18115 11.4163 9.30283L13.8473 10.1868C14.135 10.2915 14.2788 10.3438 14.3849 10.436C14.4786 10.5174 14.5509 10.6206 14.5953 10.7365C14.6458 10.8676 14.6458 11.0207 14.6458 11.3268V13.4626C14.6458 13.8265 14.6458 14.0086 14.5705 14.1646C14.5082 14.2938 14.3903 14.4207 14.266 14.4923C14.1158 14.5787 13.9509 14.5908 13.621 14.615C13.3336 14.636 13.0433 14.6467 12.7505 14.6467Z" stroke="white" stroke-width="2" stroke-linecap="round" stroke-linejoin="round"/>
</svg>
