<svg width="35" height="35" viewBox="0 0 35 35" fill="none" xmlns="http://www.w3.org/2000/svg">
<circle cx="17.2905" cy="17.2905" r="17.2905" fill="#60B420"/>
<path d="M24.1134 15.0161V10.4675M21.081 15.0161V10.4675M22.2182 24.1133C15.7285 24.1133 10.4677 18.8524 10.4677 12.3628C10.4677 12.07 10.4784 11.7797 10.4994 11.4923C10.5236 11.1624 10.5356 10.9975 10.6221 10.8474C10.6937 10.723 10.8205 10.6051 10.9498 10.5428C11.1058 10.4675 11.2878 10.4675 11.6518 10.4675H13.7876C14.0937 10.4675 14.2467 10.4675 14.3779 10.5179C14.4938 10.5624 14.597 10.6347 14.6784 10.7284C14.7706 10.8345 14.8229 10.9783 14.9275 11.266L15.8116 13.6971C15.9332 14.0317 15.9941 14.1991 15.9838 14.3579C15.9747 14.4979 15.9269 14.6326 15.8457 14.747C15.7538 14.8768 15.6011 14.9685 15.2957 15.1517L14.2581 15.7742C15.1693 17.7823 16.7978 19.413 18.8067 20.3228L19.4293 19.2853C19.6125 18.9798 19.7041 18.8271 19.8339 18.7352C19.9483 18.6541 20.0831 18.6062 20.2231 18.5971C20.3818 18.5868 20.5492 18.6477 20.8839 18.7694L23.315 19.6534C23.6026 19.758 23.7465 19.8103 23.8525 19.9025C23.9462 19.9839 24.0186 20.0871 24.063 20.203C24.1134 20.3342 24.1134 20.4872 24.1134 20.7934V22.9291C24.1134 23.2931 24.1134 23.4751 24.0381 23.6311C23.9758 23.7604 23.8579 23.8873 23.7336 23.9589C23.5834 24.0453 23.4185 24.0573 23.0887 24.0815C22.8012 24.1026 22.5109 24.1133 22.2182 24.1133Z" stroke="white" stroke-width="2" stroke-linecap="round" stroke-linejoin="round"/>
</svg>
