<svg width="23" height="23" viewBox="0 0 23 23" fill="none" xmlns="http://www.w3.org/2000/svg">
<g clip-path="url(#clip0_153_745)">
<path fill-rule="evenodd" clip-rule="evenodd" d="M16.1956 6.89998C16.1956 4.36308 14.0896 2.29998 11.5 2.29998C8.9104 2.29998 6.80442 4.36308 6.80442 6.89998C6.80442 9.43689 8.9104 11.5 11.5 11.5C14.0896 11.5 16.1956 9.43689 16.1956 6.89998ZM20.6377 23H18.5434C17.8954 23 17.3695 22.4848 17.3695 21.85C17.3695 21.2152 17.8954 20.7 18.5434 20.7H19.047C19.8593 20.7 20.4592 19.8984 20.1517 19.1613C18.7301 15.7527 15.3915 13.8 11.5 13.8C7.60854 13.8 4.26997 15.7527 2.84838 19.1613C2.54082 19.8984 3.1407 20.7 3.95304 20.7H4.45662C5.10461 20.7 5.63052 21.2152 5.63052 21.85C5.63052 22.4848 5.10461 23 4.45662 23H2.36238C0.895007 23 -0.260109 21.6855 0.0509737 20.2814C0.905571 16.4185 3.57386 13.5677 7.08851 12.2739C5.48497 11.0101 4.45662 9.07349 4.45662 6.89998C4.45662 2.81633 8.07694 -0.438177 12.3441 0.0482734C15.4361 0.400173 17.9975 2.81397 18.4612 5.83042C18.8603 8.43058 17.7745 10.8054 15.9115 12.2739C19.4262 13.5677 22.0945 16.4185 22.9491 20.2814C23.2601 21.6855 22.105 23 20.6377 23ZM15.0217 21.85C15.0217 22.4848 14.4958 23 13.8478 23H9.15222C8.50422 23 7.97832 22.4848 7.97832 21.85C7.97832 21.2152 8.50422 20.7 9.15222 20.7H13.8478C14.4958 20.7 15.0217 21.2152 15.0217 21.85Z" fill="white"/>
</g>
<defs>
<clipPath id="clip0_153_745">
<rect width="23" height="23" fill="white"/>
</clipPath>
</defs>
</svg>
