<svg width="23" height="32" viewBox="0 0 23 32" fill="none" xmlns="http://www.w3.org/2000/svg">
<path d="M21.3687 10.7562C21.3687 5.59737 16.8887 1.41052 11.3687 1.41052C5.84865 1.41052 1.36865 5.59737 1.36865 10.7562C1.36865 15.915 5.84865 20.1018 11.3687 20.1018C16.8887 20.1018 21.3687 15.915 21.3687 10.7562ZM14.5687 18.8308C14.5687 18.0831 13.9287 17.485 13.1687 17.485H10.7687C10.4487 17.485 10.1687 17.2233 10.1687 16.9243V16.1766C10.1687 15.8776 10.4487 15.6159 10.7687 15.6159H15.1687C15.9287 15.6159 16.5687 15.0178 16.5687 14.3075V13.9337C16.5687 13.2234 15.9287 12.6253 15.1687 12.6253H13.1687C12.8487 12.6253 12.5687 12.3636 12.5687 12.0646V11.6907C12.5687 11.3917 12.8487 11.13 13.1687 11.13H16.7687C17.5287 11.13 18.1687 10.5319 18.1687 9.8216C18.1687 9.52254 18.4487 9.26086 18.7687 9.26086H20.4087C20.4887 9.74684 20.5687 10.2328 20.5687 10.7562C20.5687 14.457 18.0487 17.5972 14.5687 18.8308ZM20.2486 8.51321H18.7687C18.0087 8.51321 17.3687 9.11133 17.3687 9.8216C17.3687 10.1207 17.0887 10.3823 16.7687 10.3823H13.1687C12.4087 10.3823 11.7687 10.9805 11.7687 11.6907V12.0646C11.7687 12.7748 12.4087 13.3729 13.1687 13.3729H15.1687C15.4887 13.3729 15.7687 13.6346 15.7687 13.9337V14.3075C15.7687 14.6066 15.4887 14.8682 15.1687 14.8682H10.7687C10.0087 14.8682 9.36865 15.4664 9.36865 16.1766V16.9243C9.36865 17.6346 10.0087 18.2327 10.7687 18.2327H13.1687C13.4887 18.2327 13.7687 18.4944 13.7687 18.7934V18.9803C13.7687 19.0177 13.7687 19.0177 13.7687 19.0551C13.0087 19.242 12.2087 19.3542 11.3687 19.3542C8.96865 19.3542 6.80865 18.4944 5.16865 17.1112H6.56865C7.44865 17.1112 8.16865 16.4383 8.16865 15.6159V14.8682C8.16865 14.0458 7.44865 13.3729 6.56865 13.3729C6.12865 13.3729 5.76865 13.0365 5.76865 12.6253V12.2515C5.76865 11.8403 6.12865 11.5038 6.56865 11.5038H8.16865C9.04865 11.5038 9.76865 10.8309 9.76865 10.0085V9.63469C9.76865 9.22348 10.1287 8.88704 10.5687 8.88704H14.9687C15.8487 8.88704 16.5687 8.21415 16.5687 7.39173V7.01791C16.5687 6.19549 15.8487 5.5226 14.9687 5.5226H12.1687C11.7287 5.5226 11.3687 5.18616 11.3687 4.77495V4.40113C11.3687 3.57871 10.6487 2.90583 9.76865 2.90583H7.60865C8.76865 2.41985 10.0087 2.15817 11.3687 2.15817C15.6087 2.15817 19.2087 4.84972 20.2486 8.51321ZM6.20865 3.65348H9.76865C10.2087 3.65348 10.5687 3.98992 10.5687 4.40113V4.77495C10.5687 5.59737 11.2887 6.27026 12.1687 6.27026H14.9687C15.4087 6.27026 15.7687 6.6067 15.7687 7.01791V7.39173C15.7687 7.80294 15.4087 8.13939 14.9687 8.13939H10.5687C9.68865 8.13939 8.96865 8.81227 8.96865 9.63469V10.0085C8.96865 10.4197 8.60865 10.7562 8.16865 10.7562H6.56865C5.68865 10.7562 4.96865 11.4291 4.96865 12.2515V12.6253C4.96865 13.4477 5.68865 14.1206 6.56865 14.1206C7.00865 14.1206 7.36865 14.457 7.36865 14.8682V15.6159C7.36865 16.0271 7.00865 16.3636 6.56865 16.3636H4.56865C4.52865 16.3636 4.48865 16.3635 4.40865 16.4009C3.00865 14.8682 2.16865 12.9244 2.16865 10.7562C2.16865 7.80294 3.76865 5.18616 6.20865 3.65348Z" fill="white"/>
<path d="M22.4804 28.0518L12.8721 25.3159L14.449 21.0562C19.3265 19.7748 22.7371 15.5497 22.7371 10.7359C22.7371 4.81383 17.6396 0 11.3685 0C5.0975 0 0 4.81383 0 10.7359C0 15.5497 3.41056 19.7748 8.28802 21.0908L9.86495 25.3505L0.256709 28.0518C0.110018 28.0865 0 28.225 0 28.3981C0 28.5713 0.110018 28.6752 0.256709 28.7445L11.2585 31.8613C11.2952 31.8613 11.3319 31.8613 11.3685 31.8613C11.4052 31.8613 11.4419 31.8613 11.4785 31.8613L22.4804 28.7445C22.627 28.7098 22.7371 28.5713 22.7371 28.3981C22.7371 28.225 22.627 28.1211 22.4804 28.0518ZM8.65475 20.4674C3.99732 19.29 0.733454 15.3073 0.733454 10.7359C0.733454 5.19478 5.5009 0.692638 11.3685 0.692638C17.2362 0.692638 22.0036 5.19478 22.0036 10.7359C22.0036 15.3073 18.7397 19.29 14.0823 20.4674C13.9723 20.5021 13.8623 20.5713 13.8256 20.6752L12.0653 25.4891L11.3685 27.3246L10.6717 25.4544L8.91146 20.6406C8.87479 20.5713 8.80144 20.4674 8.65475 20.4674ZM11.3685 31.1687L1.65027 28.3981L10.1217 26.0085L11.0385 28.502C11.0751 28.6406 11.2218 28.7445 11.3685 28.7445C11.5152 28.7445 11.6619 28.6406 11.6986 28.502L12.6154 26.0085L21.0868 28.3981L11.3685 31.1687Z" fill="white"/>
</svg>
