<svg width="27" height="36" viewBox="0 0 27 36" fill="none" xmlns="http://www.w3.org/2000/svg">
<path d="M22.6968 24.8018L13.2954 35.0752L3.89409 24.8018C2.03471 22.77 0.768456 20.1812 0.255462 17.3629C-0.257532 14.5447 0.00577147 11.6235 1.01208 8.96871C2.01838 6.31396 3.72249 4.04492 5.90891 2.4485C8.09533 0.852084 10.6659 0 13.2954 0C15.925 0 18.4956 0.852084 20.682 2.4485C22.8684 4.04492 24.5725 6.31396 25.5788 8.96871C26.5851 11.6235 26.8484 14.5447 26.3354 17.3629C25.8224 20.1812 24.5562 22.77 22.6968 24.8018ZM13.2954 20.9856C14.8626 20.9856 16.3656 20.3053 17.4738 19.0944C18.582 17.8834 19.2045 16.241 19.2045 14.5285C19.2045 12.8159 18.582 11.1735 17.4738 9.96258C16.3656 8.75163 14.8626 8.07133 13.2954 8.07133C11.7283 8.07133 10.2253 8.75163 9.11709 9.96258C8.00892 11.1735 7.38636 12.8159 7.38636 14.5285C7.38636 16.241 8.00892 17.8834 9.11709 19.0944C10.2253 20.3053 11.7283 20.9856 13.2954 20.9856ZM13.2954 17.7571C12.5118 17.7571 11.7603 17.4169 11.2063 16.8114C10.6522 16.206 10.3409 15.3848 10.3409 14.5285C10.3409 13.6722 10.6522 12.851 11.2063 12.2455C11.7603 11.6401 12.5118 11.2999 13.2954 11.2999C14.079 11.2999 14.8305 11.6401 15.3846 12.2455C15.9387 12.851 16.25 13.6722 16.25 14.5285C16.25 15.3848 15.9387 16.206 15.3846 16.8114C14.8305 17.4169 14.079 17.7571 13.2954 17.7571Z" fill="white"/>
</svg>
