<svg width="26" height="26" viewBox="0 0 26 26" fill="none" xmlns="http://www.w3.org/2000/svg">
<path fill-rule="evenodd" clip-rule="evenodd" d="M11.3557 24.3181C10.7386 24.3181 10.2121 23.8715 10.1116 23.2626C10.0191 22.77 9.66445 22.3675 9.1874 22.2138C8.79869 22.0803 8.41861 21.9229 8.0494 21.7425C7.61005 21.5177 7.08298 21.5514 6.67571 21.83C6.18285 22.1844 5.5058 22.1295 5.07645 21.7004L3.40648 20.0304C2.95704 19.5809 2.89865 18.8724 3.26844 18.3554C3.55362 17.9387 3.5947 17.4015 3.37618 16.9463C3.2322 16.6302 3.10519 16.3065 2.99572 15.9767C2.83893 15.457 2.40616 15.0678 1.87286 14.9666C1.22977 14.8639 0.755006 14.3116 0.750016 13.6603V11.5711C0.746597 10.8205 1.28879 10.1784 2.02943 10.056C2.5913 9.94914 3.06047 9.56431 3.27517 9.03419C3.33914 8.88492 3.40648 8.73678 3.47718 8.58976C3.76273 8.04002 3.72329 7.37788 3.37449 6.86593C2.93829 6.25969 3.00527 5.42674 3.53273 4.89799L4.75996 3.67076C5.36524 3.06526 6.31984 2.9869 7.01577 3.48558L7.05448 3.51252C7.57413 3.86227 8.23539 3.92562 8.81199 3.68086C9.42885 3.45884 9.88355 2.92877 10.0089 2.28529L10.0258 2.22806C10.1643 1.37619 10.9 0.750354 11.7631 0.75H13.2446C14.1308 0.749596 14.8872 1.39067 15.0323 2.26509L15.0592 2.38293C15.1782 2.99936 15.6093 3.50952 16.1972 3.72968C16.7639 3.97289 17.4155 3.90937 17.9245 3.56134L18.0086 3.50074C18.7225 2.98618 19.7043 3.06531 20.3267 3.6876L21.4563 4.81887C22.0224 5.38814 22.0936 6.28334 21.6246 6.93495C21.2572 7.47957 21.2104 8.17943 21.5017 8.76821L21.5742 8.93655C21.8101 9.51145 22.3206 9.9281 22.931 10.0443C23.7288 10.1744 24.3155 10.8622 24.3181 11.6705V13.5441C24.3179 14.2569 23.8024 14.8649 23.0993 14.9818C22.5211 15.0927 22.05 15.5114 21.872 16.0726C21.7935 16.297 21.7059 16.5216 21.6094 16.746C21.3848 17.2393 21.4347 17.814 21.7408 18.2611C22.1447 18.823 22.082 19.5949 21.5927 20.0843L20.0254 21.6532C19.5772 22.1014 18.8703 22.1591 18.3555 21.7896C17.9255 21.4958 17.3687 21.4635 16.9077 21.7054C16.5791 21.8682 16.2419 22.0126 15.8976 22.1381C15.4161 22.3042 15.0611 22.7163 14.9684 23.2171C14.8701 23.8473 14.3299 24.3134 13.6923 24.3181H11.3557Z" stroke="white" stroke-width="1.5" stroke-linecap="round" stroke-linejoin="round"/>
<path fill-rule="evenodd" clip-rule="evenodd" d="M16.4614 12.5342C16.4614 14.7033 14.703 16.4616 12.5339 16.4616C10.3648 16.4616 8.60645 14.7033 8.60645 12.5342C8.60645 10.3651 10.3648 8.60669 12.5339 8.60669C14.703 8.60669 16.4614 10.3651 16.4614 12.5342Z" stroke="white" stroke-width="1.5" stroke-linecap="round" stroke-linejoin="round"/>
</svg>
