<svg width="27" height="27" viewBox="0 0 27 27" fill="none" xmlns="http://www.w3.org/2000/svg">
<path d="M10.8959 15.835L25.3355 1.40068M11.3063 16.4842L14.5805 23.0327C15.3718 24.6152 15.7674 25.4065 16.2658 25.6186C16.6983 25.8028 17.1928 25.7693 17.5967 25.5289C18.0621 25.2518 18.348 24.4145 18.9197 22.7401L25.1062 4.62261C25.6044 3.16371 25.8534 2.43424 25.6829 1.95169C25.5346 1.53189 25.2044 1.20167 24.7847 1.05336C24.302 0.882873 23.5726 1.13196 22.1136 1.63012L3.99612 7.81661C2.32176 8.38834 1.48457 8.67422 1.20743 9.13964C0.966921 9.54354 0.933595 10.038 1.11772 10.4704C1.32991 10.9688 2.12116 11.3645 3.70366 12.1557L10.2521 15.43C10.5129 15.5604 10.6433 15.6255 10.7562 15.7126C10.8565 15.79 10.9464 15.8798 11.0236 15.98C11.1108 16.093 11.1759 16.2234 11.3063 16.4842Z" stroke="white" stroke-width="2" stroke-linecap="round" stroke-linejoin="round"/>
</svg>
