<svg width="25" height="25" viewBox="0 0 25 25" fill="none" xmlns="http://www.w3.org/2000/svg">
<g clip-path="url(#clip0_365_10)">
<path d="M12.5 25C5.625 25 0 19.375 0 12.5C0 5.625 5.625 0 12.5 0C19.375 0 25 5.625 25 12.5C25 19.375 19.375 25 12.5 25ZM12.5 2.08333C6.77083 2.08333 2.08333 6.77083 2.08333 12.5C2.08333 18.2292 6.77083 22.9167 12.5 22.9167C18.2292 22.9167 22.9167 18.2292 22.9167 12.5C22.9167 6.77083 18.2292 2.08333 12.5 2.08333Z" fill="white"/>
<path d="M12.6832 12.1794C11.6754 13.2788 11.4006 13.8285 11.309 15.0195H13.5078C13.5078 14.5614 13.691 14.1033 14.424 13.2788C15.4318 12.1794 16.6228 11.0799 16.6228 9.43082C16.6228 6.95715 14.9737 5.58289 12.4084 5.58289C10.7593 5.58289 9.29337 6.22421 8.3772 7.232V9.52244C9.29337 8.60627 10.6676 7.69009 12.3168 7.69009C13.691 7.69009 14.424 8.33141 14.424 9.52244C14.424 10.7135 13.4162 11.3548 12.6832 12.1794ZM10.7593 17.8596C10.7593 18.6842 11.4006 19.4171 12.2251 19.4171C13.0497 19.4171 13.691 18.7758 13.691 17.8596C13.691 16.9435 13.0497 16.3021 12.2251 16.3021C11.4006 16.3021 10.7593 17.0351 10.7593 17.8596Z" fill="white"/>
</g>
<defs>
<clipPath id="clip0_365_10">
<rect width="25" height="25" fill="white"/>
</clipPath>
</defs>
</svg>
