<svg width="28" height="28" viewBox="0 0 28 28" fill="none" xmlns="http://www.w3.org/2000/svg">
<path d="M11.3959 16.3349L25.8355 1.90056M11.8063 16.984L15.0805 23.5326C15.8718 25.115 16.2674 25.9063 16.7658 26.1185C17.1983 26.3026 17.6928 26.2692 18.0967 26.0288C18.5621 25.7516 18.848 24.9144 19.4197 23.24L25.6062 5.12249C26.1044 3.66358 26.3534 2.93412 26.1829 2.45157C26.0346 2.03177 25.7044 1.70155 25.2847 1.55324C24.802 1.38275 24.0726 1.63184 22.6136 2.13L4.49612 8.31649C2.82176 8.88822 1.98457 9.1741 1.70743 9.63952C1.46692 10.0434 1.43359 10.5378 1.61772 10.9703C1.82991 11.4687 2.62116 11.8644 4.20366 12.6556L10.7521 15.9299C11.0129 16.0603 11.1433 16.1254 11.2562 16.2125C11.3565 16.2898 11.4464 16.3797 11.5236 16.4799C11.6108 16.5929 11.6759 16.7233 11.8063 16.984Z" stroke="#072F6D" stroke-width="3" stroke-linecap="round" stroke-linejoin="round"/>
</svg>
