<svg width="22" height="23" viewBox="0 0 22 23" fill="none" xmlns="http://www.w3.org/2000/svg">
<path fill-rule="evenodd" clip-rule="evenodd" d="M15.4915 6.89998C15.4915 4.36308 13.477 2.29998 11 2.29998C8.52299 2.29998 6.50857 4.36308 6.50857 6.89998C6.50857 9.43689 8.52299 11.5 11 11.5C13.477 11.5 15.4915 9.43689 15.4915 6.89998ZM19.7404 23H17.7372C17.1174 23 16.6143 22.4848 16.6143 21.85C16.6143 21.2152 17.1174 20.7 17.7372 20.7H18.2189C18.9959 20.7 19.5697 19.8984 19.2755 19.1613C17.9157 15.7527 14.7223 13.8 11 13.8C7.27774 13.8 4.08432 15.7527 2.72454 19.1613C2.43035 19.8984 3.00415 20.7 3.78116 20.7H4.26285C4.88267 20.7 5.38571 21.2152 5.38571 21.85C5.38571 22.4848 4.88267 23 4.26285 23H2.25967C0.856094 23 -0.2488 21.6855 0.0487575 20.2814C0.866198 16.4185 3.41848 13.5677 6.78032 12.2739C5.24649 11.0101 4.26285 9.07349 4.26285 6.89998C4.26285 2.81633 7.72577 -0.438177 11.8074 0.0482734C14.765 0.400173 17.215 2.81397 17.6586 5.83042C18.0403 8.43058 17.0017 10.8054 15.2197 12.2739C18.5816 13.5677 21.1338 16.4185 21.9513 20.2814C22.2488 21.6855 21.1439 23 19.7404 23ZM14.3686 21.85C14.3686 22.4848 13.8656 23 13.2457 23H8.75429C8.13448 23 7.63143 22.4848 7.63143 21.85C7.63143 21.2152 8.13448 20.7 8.75429 20.7H13.2457C13.8656 20.7 14.3686 21.2152 14.3686 21.85Z" fill="white"/>
</svg>
